<?xml version="1.0" encoding="UTF-8"?>
<svg id="Capa_1" data-name="Capa 1" xmlns="http://www.w3.org/2000/svg" viewBox="0 0 1041.94 720.06">
  <defs>
    <style>
      .cls-1 {
        fill: #c1383f;
      }

      .cls-2 {
        fill: #221e20;
        fill-rule: evenodd;
      }

      .cls-3 {
        fill: #d5b291;
      }

      .cls-4 {
        fill: #b53a2e;
      }

      .cls-5 {
        fill: #491e18;
      }
    </style>
  </defs>
  <g>
    <path class="cls-3" d="M230.75,348.71c-22.39-125.2,61.46-244.94,186.12-267.24,109.4-19.57,213.73,48.25,252.98,148.3-.57-4.85-1.27-9.71-2.14-14.57C643.57,80.16,510.99-9.1,371.6,15.84c-139.39,24.93-229.48,156.93-205.33,291.97,14.59,81.59,64.08,147.3,135.42,180.37-39.73-36.65-61.58-87.09-70.95-139.46Z"/>
    <path class="cls-4" d="M220.95,319.22c0-125.99,102.65-228.13,228.11-228.13,110.09,0,199.99,84.33,220.83,188.74.29-4.83.46-9.68.46-14.58,0-135.89-113.71-246.06-253.98-246.06s-251.15,113-251.15,248.89c0,82.11,36.79,154.81,100.6,199.51-32.35-42.66-44.86-95.66-44.86-148.37Z"/>
    <path class="cls-3" d="M593.06,244.43c20.7,48.92-4.69,79.46-15.11,90.61-29.11,31.16-88.05,24.97-113.65-5.17.8,1.61,1.7,3.18,2.55,4.79,25.04,47.02,86.14,58.08,128.68,33.79,42.54-24.3,65.74-71.71,38.16-128.56-13.34-27.5-51.17-46.95-83.61-41.78,18.12,8.47,35.76,29.28,42.97,46.32Z"/>
    <path class="cls-3" d="M601.76,259.75c8.57,52.43-23.31,76.1-36.07,84.48-35.64,23.41-91.46,3.48-109.22-31.86.4,1.75.9,3.49,1.35,5.26,13.24,51.6,70,76.78,117.07,63.21,47.08-13.57,80.81-54.16,67.43-115.92-6.47-29.88-38.64-57.7-71.38-60.34,15.61,12.51,27.84,36.89,30.82,55.16Z"/>
    <path class="cls-4" d="M598,255.36c15.5,50.81-12.92,78.54-24.44,88.55-32.19,27.97-90.17,15.69-112.5-16.96.63,1.69,1.36,3.34,2.04,5.03,20.02,49.36,79.64,66.72,124.48,46.98,44.84-19.75,72.84-64.49,51.31-123.9-10.41-28.74-46.02-52.02-78.81-50.24,17.14,10.31,32.52,32.84,37.92,50.54Z"/>
    <path class="cls-3" d="M615,382.37c-56.38,40.08-124.59,24.11-162.31-28.95-33.11-46.57-31.13-98.27-16.37-136.26,0,0-3.53,2.69-9.35,8.19-55.07,69.28-14.52,148.92,11.45,172.89,48.31,44.6,113.12,56.89,176.12,15.25,37.61-24.86,58.21-64.82,59.02-106.02-9.36,27.26-34.97,58.13-58.56,74.9Z"/>
    <path class="cls-3" d="M578.94,406.92c-66.27,19.84-125.73-17.2-144.4-79.57-16.39-54.74,2.1-103.06,28.29-134.29,0,0-4.21,1.41-11.49,4.75-74.42,47.91-61.6,136.35-44.71,167.4,31.42,57.76,88.84,90.22,161.88,71.04,43.6-11.45,75.95-42.67,89.96-81.43-17.62,22.8-51.8,43.81-79.52,52.11Z"/>
    <path class="cls-4" d="M598.48,405.68c-61.97,30.75-126.83,4.28-155.77-54.04-25.4-51.18-15.34-101.93,5.2-137.14,0,0-3.91,2.1-10.52,6.63-65.26,59.79-37.69,144.8-15.8,172.54,40.72,51.62,102.8,73.93,171.55,42.68,41.04-18.65,67.65-54.89,74.92-95.46-13.52,25.45-43.66,51.93-69.58,64.79Z"/>
    <path class="cls-3" d="M375.89,288.8c11.79-63.78,67.87-120.68,124.96-121.83-2.68-.67-5.35-1.87-8.15-1.78-87.64,2.8-145.69,48.47-163.62,129.14"/>
    <path class="cls-3" d="M523.23,466.76c-52.21-4.27-123.06-33.73-142.52-113.64-17.08-70.12,13.93-153.42,71.36-180.58-2.4.35-6.17.79-9.08,1.9-91.14,34.81-131.18,108.74-112.64,198.8,19.14,92.97,110.66,137.24,195.9,122.98,42.07-7.04,89.29-37.06,98.3-58.34-27.89,18.95-65.37,31.82-101.32,28.88Z"/>
    <path class="cls-4" d="M501.8,473.32c-51.06-11.68-116.98-50.97-124.82-132.83-6.89-71.84,35.71-149.86,96.43-168.54-2.42,0-6.22-.1-9.26.59-95.18,21.43-145.37,88.88-139.89,180.66,5.66,94.75,89.91,151.64,176.32,149.71,42.65-.95,93.67-23.92,105.63-43.7-30.31,14.77-69.25,22.15-104.4,14.11Z"/>
    <path class="cls-3" d="M385.41,481.83c-70.16-54.76-94.05-159.93-50.66-246.92,39.53-79.27,135.97-112.61,217.3-85.7-3.26-2.12-6.6-4.17-10.02-6.11-95.08-53.99-217.34-18.2-273.07,79.94-55.73,98.14-23.97,217.89,71.11,271.88,57.45,32.62,119.92,29.09,137.8,24.3-39.28-6.02-67.33-17.79-92.45-37.39Z"/>
    <path class="cls-3" d="M334.76,445.65c-49.63-73.88-39.59-181.26,28.71-250.42,62.24-63.03,164.27-64.69,233.18-13.81-2.44-3.03-4.97-6.01-7.62-8.93-73.55-80.91-200.87-84.95-284.39-9.03-83.51,75.92-90.6,199.6-17.05,280.51,44.44,48.88,104.91,64.97,123.39,65.99-35.46-17.95-58.45-37.86-76.22-64.32Z"/>
    <path class="cls-4" d="M360.73,472.56c-61.85-63.99-70.87-171.46-15.8-251.56,50.18-73,150.32-92.58,227.11-54.62-2.93-2.55-5.95-5.04-9.07-7.45-86.64-66.7-212.69-48.28-281.54,41.15-68.85,89.43-54.07,212.43,32.57,279.13,52.35,40.3,114.7,45.5,133.07,43.25-38.06-11.43-64.2-26.99-86.35-49.9Z"/>
  </g>
  <g>
    <path class="cls-5" d="M72.69,628.31c-1.91.83-3.63,1.61-5.17,2.34-1.55.73-3.57,1.49-6.06,2.29-2.12.66-4.41,1.22-6.9,1.69-2.48.47-5.21.7-8.19.7-5.62,0-10.72-.79-15.32-2.37-4.6-1.58-8.59-4.05-11.99-7.41-3.33-3.29-5.93-7.48-7.8-12.56-1.87-5.08-2.81-10.98-2.81-17.71s.9-12.09,2.71-17.11c1.8-5.03,4.4-9.28,7.8-12.75,3.29-3.36,7.28-5.93,11.94-7.7s9.84-2.65,15.53-2.65c4.16,0,8.31.5,12.46,1.51,4.14,1.01,8.75,2.78,13.81,5.31v12.22h-.78c-4.26-3.57-8.5-6.17-12.69-7.8-4.2-1.63-8.69-2.44-13.47-2.44-3.92,0-7.45.63-10.59,1.9-3.14,1.27-5.94,3.23-8.4,5.91-2.39,2.6-4.26,5.89-5.59,9.85-1.33,3.97-2,8.56-2,13.76s.74,10.13,2.21,14.04c1.47,3.92,3.37,7.11,5.7,9.57,2.43,2.57,5.26,4.47,8.5,5.7,3.24,1.23,6.67,1.84,10.28,1.84,4.96,0,9.6-.85,13.94-2.55,4.34-1.7,8.39-4.25,12.17-7.65h.73v12.07Z"/>
    <path class="cls-5" d="M134.58,605.89h-42.81c0,3.57.54,6.68,1.61,9.34s2.55,4.83,4.42,6.53c1.8,1.67,3.94,2.91,6.42,3.74,2.48.83,5.21,1.25,8.19,1.25,3.96,0,7.93-.79,11.94-2.36,4-1.58,6.86-3.13,8.56-4.66h.52v10.67c-3.3,1.39-6.66,2.55-10.09,3.49-3.43.94-7.04,1.41-10.82,1.41-9.64,0-17.17-2.61-22.58-7.83-5.41-5.22-8.11-12.63-8.11-22.24s2.59-17.05,7.78-22.63c5.18-5.58,12.01-8.38,20.47-8.38,7.84,0,13.88,2.29,18.13,6.87,4.25,4.58,6.37,11.08,6.37,19.51v5.31ZM125.06,598.4c-.03-5.13-1.33-9.1-3.87-11.91s-6.42-4.22-11.63-4.22-9.41,1.55-12.51,4.63c-3.11,3.09-4.87,6.92-5.28,11.5h33.29Z"/>
    <path class="cls-5" d="M185.24,586.48h-.52c-1.46-.34-2.87-.6-4.24-.75s-2.99-.23-4.87-.23c-3.02,0-5.93.67-8.74,2-2.81,1.34-5.52,3.06-8.12,5.18v41.25h-9.78v-58.11h9.78v8.59c3.88-3.12,7.31-5.33,10.27-6.63,2.97-1.3,5.99-1.96,9.08-1.96,1.7,0,2.93.05,3.69.13.76.09,1.91.25,3.43.5v10.04Z"/>
    <path class="cls-5" d="M240.03,633.93h-9.73v-6.19c-.87.59-2.04,1.41-3.51,2.47s-2.9,1.9-4.29,2.52c-1.63.8-3.5,1.47-5.62,2.01-2.11.53-4.6.81-7.44.81-5.24,0-9.68-1.73-13.32-5.2-3.64-3.47-5.46-7.89-5.46-13.26,0-4.4.95-7.97,2.84-10.69,1.89-2.72,4.59-4.86,8.09-6.42,3.54-1.56,7.79-2.62,12.75-3.17,4.96-.56,10.28-.97,15.97-1.25v-1.51c0-2.22-.39-4.06-1.17-5.52-.78-1.46-1.9-2.6-3.36-3.43-1.39-.8-3.05-1.34-5-1.61s-3.97-.42-6.09-.42c-2.57,0-5.43.34-8.58,1.02-3.16.68-6.42,1.66-9.78,2.94h-.52v-9.94c1.91-.52,4.66-1.09,8.27-1.72,3.61-.62,7.16-.94,10.66-.94,4.09,0,7.66.34,10.69,1.01,3.03.68,5.66,1.83,7.88,3.46,2.19,1.59,3.85,3.66,5,6.19,1.14,2.53,1.71,5.67,1.71,9.41v39.43ZM230.3,619.62v-16.17c-2.98.17-6.49.43-10.53.78-4.04.34-7.24.85-9.6,1.51-2.81.8-5.08,2.04-6.81,3.72-1.73,1.68-2.6,4-2.6,6.94,0,3.33,1,5.83,3.02,7.52,2.01,1.68,5.08,2.52,9.21,2.52,3.43,0,6.57-.67,9.42-2,2.84-1.33,5.48-2.94,7.91-4.81ZM233.84,546.74l-14.2,19.46h-7.75l9.31-19.46h12.64Z"/>
    <path class="cls-5" d="M342.69,633.93h-9.78v-33.09c0-2.49-.11-4.9-.34-7.23-.23-2.32-.7-4.18-1.43-5.57-.8-1.49-1.94-2.62-3.43-3.38-1.49-.77-3.64-1.15-6.45-1.15s-5.48.69-8.22,2.06c-2.74,1.37-5.48,3.11-8.22,5.23.1.8.19,1.72.26,2.78.07,1.06.1,2.11.1,3.15v37.19h-9.78v-33.09c0-2.57-.11-5-.34-7.31-.23-2.31-.7-4.15-1.43-5.54-.8-1.49-1.94-2.61-3.43-3.35-1.49-.75-3.64-1.12-6.45-1.12s-5.35.66-8.04,1.98c-2.69,1.32-5.37,3-8.04,5.05v43.38h-9.78v-58.11h9.78v6.45c3.05-2.53,6.1-4.5,9.13-5.93s6.27-2.13,9.7-2.13c3.95,0,7.31.83,10.07,2.5s4.81,3.97,6.16,6.92c3.95-3.33,7.56-5.73,10.82-7.2,3.26-1.47,6.74-2.21,10.46-2.21,6.38,0,11.09,1.94,14.12,5.8,3.04,3.87,4.55,9.27,4.55,16.2v37.72Z"/>
    <path class="cls-5" d="M372.35,566.09h-11.03v-10.14h11.03v10.14ZM371.73,633.93h-9.78v-58.11h9.78v58.11Z"/>
    <path class="cls-5" d="M433.84,630.28c-3.26,1.56-6.36,2.77-9.29,3.64-2.93.87-6.04,1.3-9.34,1.3-4.2,0-8.05-.62-11.55-1.85-3.5-1.23-6.5-3.1-9-5.59-2.53-2.5-4.49-5.65-5.88-9.47-1.39-3.81-2.08-8.27-2.08-13.37,0-9.5,2.61-16.96,7.83-22.37,5.22-5.41,12.11-8.12,20.68-8.12,3.33,0,6.6.47,9.81,1.4,3.21.94,6.15,2.09,8.82,3.44v10.87h-.52c-2.98-2.32-6.06-4.11-9.23-5.36-3.17-1.25-6.27-1.87-9.29-1.87-5.55,0-9.93,1.86-13.14,5.59-3.21,3.73-4.81,9.2-4.81,16.42s1.57,12.39,4.71,16.15c3.14,3.76,7.55,5.64,13.24,5.64,1.97,0,3.99-.26,6.03-.78s3.88-1.2,5.52-2.03c1.42-.73,2.76-1.5,4-2.32,1.25-.82,2.24-1.52,2.97-2.11h.52v10.77Z"/>
    <path class="cls-5" d="M490.57,633.93h-9.73v-6.19c-.87.59-2.04,1.41-3.51,2.47-1.47,1.06-2.9,1.9-4.29,2.52-1.63.8-3.5,1.47-5.62,2.01-2.11.53-4.6.81-7.44.81-5.24,0-9.68-1.73-13.32-5.2-3.64-3.47-5.46-7.89-5.46-13.26,0-4.4.95-7.97,2.84-10.69,1.89-2.72,4.59-4.86,8.09-6.42,3.54-1.56,7.79-2.62,12.75-3.17,4.96-.56,10.28-.97,15.97-1.25v-1.51c0-2.22-.39-4.06-1.17-5.52-.78-1.46-1.9-2.6-3.36-3.43-1.39-.8-3.05-1.34-5-1.61s-3.97-.42-6.09-.42c-2.57,0-5.43.34-8.58,1.02-3.16.68-6.42,1.66-9.78,2.94h-.52v-9.94c1.91-.52,4.66-1.09,8.27-1.72,3.61-.62,7.16-.94,10.66-.94,4.09,0,7.66.34,10.69,1.01,3.03.68,5.66,1.83,7.88,3.46,2.19,1.59,3.85,3.66,5,6.19,1.14,2.53,1.71,5.67,1.71,9.41v39.43ZM480.84,619.62v-16.17c-2.98.17-6.49.43-10.53.78-4.04.34-7.24.85-9.6,1.51-2.81.8-5.08,2.04-6.81,3.72-1.73,1.68-2.6,4-2.6,6.94,0,3.33,1,5.83,3.02,7.52,2.01,1.68,5.08,2.52,9.21,2.52,3.43,0,6.57-.67,9.42-2,2.84-1.33,5.48-2.94,7.91-4.81Z"/>
    <path class="cls-5" d="M550.91,617.18c0,5.31-2.19,9.66-6.58,13.06-4.39,3.4-10.38,5.1-17.97,5.1-4.3,0-8.24-.51-11.83-1.54-3.59-1.02-6.6-2.14-9.03-3.36v-10.98h.52c3.09,2.33,6.52,4.17,10.3,5.54s7.41,2.06,10.87,2.06c4.3,0,7.66-.69,10.09-2.08,2.43-1.39,3.64-3.57,3.64-6.55,0-2.29-.66-4.02-1.98-5.2-1.32-1.18-3.85-2.18-7.59-3.01-1.39-.31-3.2-.68-5.44-1.09-2.23-.42-4.27-.87-6.11-1.35-5.1-1.35-8.71-3.34-10.85-5.95-2.13-2.62-3.2-5.84-3.2-9.65,0-2.39.49-4.65,1.48-6.76.99-2.12,2.49-4.01,4.5-5.67,1.94-1.63,4.41-2.92,7.41-3.88,3-.95,6.36-1.43,10.07-1.43,3.47,0,6.98.43,10.54,1.27,3.55.85,6.51,1.88,8.87,3.1v10.46h-.52c-2.5-1.84-5.53-3.39-9.1-4.65-3.57-1.27-7.07-1.9-10.51-1.9s-6.59.69-9.05,2.06c-2.46,1.37-3.69,3.4-3.69,6.11,0,2.39.75,4.2,2.24,5.41,1.46,1.21,3.81,2.21,7.07,2.97,1.8.42,3.82.83,6.06,1.25,2.24.42,4.1.8,5.59,1.15,4.54,1.04,8.05,2.83,10.51,5.36,2.46,2.57,3.69,5.97,3.69,10.2Z"/>
  </g>
  <g>
    <path class="cls-1" d="M653.65,633.93h-51.03v-77.46h51.03v9.16h-40.73v21.22h40.73v9.16h-40.73v28.77h40.73v9.16Z"/>
    <path class="cls-1" d="M679.51,633.93h-9.78v-80.94h9.78v80.94Z"/>
  </g>
  <g>
    <path class="cls-1" d="M794.41,628.31c-1.91.83-3.63,1.61-5.17,2.34-1.55.73-3.57,1.49-6.06,2.29-2.12.66-4.41,1.22-6.9,1.69-2.48.47-5.21.7-8.19.7-5.62,0-10.72-.79-15.32-2.37-4.6-1.58-8.59-4.05-11.99-7.41-3.33-3.29-5.93-7.48-7.8-12.56-1.87-5.08-2.81-10.98-2.81-17.71s.9-12.09,2.71-17.11c1.8-5.03,4.4-9.28,7.8-12.75,3.29-3.36,7.28-5.93,11.94-7.7,4.66-1.77,9.84-2.65,15.53-2.65,4.16,0,8.31.5,12.46,1.51,4.14,1.01,8.75,2.78,13.81,5.31v12.22h-.78c-4.26-3.57-8.5-6.17-12.69-7.8-4.2-1.63-8.69-2.44-13.47-2.44-3.92,0-7.45.63-10.59,1.9-3.14,1.27-5.94,3.23-8.4,5.91-2.39,2.6-4.26,5.89-5.59,9.85-1.33,3.97-2,8.56-2,13.76s.74,10.13,2.21,14.04c1.47,3.92,3.37,7.11,5.7,9.57,2.43,2.57,5.26,4.47,8.5,5.7,3.24,1.23,6.67,1.84,10.28,1.84,4.96,0,9.6-.85,13.94-2.55,4.34-1.7,8.39-4.25,12.17-7.65h.73v12.07Z"/>
    <path class="cls-1" d="M818.17,566.09h-11.03v-10.14h11.03v10.14ZM817.55,633.93h-9.78v-58.11h9.78v58.11Z"/>
    <path class="cls-1" d="M884.1,633.93h-9.78v-33.09c0-2.67-.16-5.17-.47-7.52-.31-2.34-.88-4.17-1.71-5.49-.87-1.46-2.12-2.54-3.75-3.25-1.63-.71-3.74-1.07-6.35-1.07s-5.46.66-8.37,1.98-5.71,3-8.38,5.05v43.38h-9.78v-58.11h9.78v6.45c3.05-2.53,6.21-4.5,9.47-5.93s6.61-2.13,10.04-2.13c6.28,0,11.06,1.89,14.36,5.67,3.29,3.78,4.94,9.22,4.94,16.33v37.72Z"/>
    <path class="cls-1" d="M946.12,630.28c-3.26,1.56-6.36,2.77-9.29,3.64-2.93.87-6.04,1.3-9.34,1.3-4.2,0-8.05-.62-11.55-1.85-3.5-1.23-6.5-3.1-9-5.59-2.53-2.5-4.49-5.65-5.88-9.47-1.39-3.81-2.08-8.27-2.08-13.37,0-9.5,2.61-16.96,7.83-22.37,5.22-5.41,12.11-8.12,20.68-8.12,3.33,0,6.6.47,9.81,1.4,3.21.94,6.15,2.09,8.82,3.44v10.87h-.52c-2.98-2.32-6.06-4.11-9.23-5.36-3.17-1.25-6.27-1.87-9.29-1.87-5.55,0-9.93,1.86-13.14,5.59-3.21,3.73-4.81,9.2-4.81,16.42s1.57,12.39,4.71,16.15c3.14,3.76,7.55,5.64,13.24,5.64,1.97,0,3.99-.26,6.03-.78s3.88-1.2,5.52-2.03c1.42-.73,2.76-1.5,4-2.32,1.25-.82,2.24-1.52,2.97-2.11h.52v10.77Z"/>
    <path class="cls-1" d="M1008.18,604.9c0,9.47-2.43,16.94-7.29,22.42-4.86,5.48-11.36,8.22-19.51,8.22s-14.75-2.74-19.59-8.22c-4.84-5.48-7.26-12.95-7.26-22.42s2.42-16.95,7.26-22.45c4.84-5.5,11.37-8.25,19.59-8.25s14.65,2.75,19.51,8.25c4.86,5.5,7.29,12.98,7.29,22.45ZM998.09,604.9c0-7.53-1.47-13.12-4.42-16.78-2.95-3.66-7.04-5.49-12.28-5.49s-9.43,1.83-12.36,5.49c-2.93,3.66-4.39,9.25-4.39,16.78s1.47,12.8,4.42,16.57c2.95,3.76,7.06,5.65,12.33,5.65s9.29-1.86,12.25-5.59c2.97-3.73,4.45-9.27,4.45-16.62Z"/>
  </g>
  <g>
    <path class="cls-1" d="M517.34,707.79v-37.26h4.93v32.87h18.35v4.4h-23.28Z"/>
    <path class="cls-1" d="M564.72,704.46c-1.7,1.44-3.33,2.46-4.89,3.05-1.57.59-3.25.89-5.05.89-2.97,0-5.25-.72-6.84-2.18-1.59-1.45-2.39-3.3-2.39-5.55,0-1.32.3-2.53.9-3.62.6-1.09,1.39-1.97,2.36-2.63.97-.66,2.07-1.16,3.29-1.5.9-.24,2.25-.47,4.07-.69,3.7-.44,6.41-.96,8.16-1.58.02-.63.03-1.02.03-1.19,0-1.86-.44-3.18-1.3-3.94-1.17-1.03-2.9-1.55-5.21-1.55-2.15,0-3.74.38-4.76,1.13-1.03.76-1.79,2.09-2.28,4l-4.47-.61c.41-1.92,1.08-3.46,2.01-4.64.93-1.18,2.28-2.09,4.04-2.72,1.76-.64,3.81-.95,6.13-.95s4.18.27,5.62.82c1.44.54,2.5,1.22,3.18,2.05.68.82,1.15,1.86,1.43,3.11.15.78.23,2.19.23,4.22v6.1c0,4.25.1,6.94.29,8.07.19,1.13.58,2.21,1.16,3.24h-4.78c-.47-.95-.78-2.06-.92-3.33ZM564.34,694.24c-1.66.68-4.15,1.26-7.47,1.73-1.88.27-3.21.57-3.99.91-.78.34-1.38.84-1.81,1.49-.42.66-.63,1.38-.63,2.18,0,1.22.46,2.23,1.38,3.05.93.82,2.28,1.22,4.06,1.22s3.33-.38,4.7-1.16c1.37-.77,2.38-1.83,3.03-3.16.49-1.03.74-2.56.74-4.58v-1.68Z"/>
    <path class="cls-1" d="M593.57,707.79v-3.4c-1.71,2.68-4.23,4.01-7.55,4.01-2.15,0-4.13-.59-5.93-1.78s-3.2-2.84-4.19-4.97c-.99-2.12-1.49-4.57-1.49-7.33s.45-5.14,1.35-7.33c.9-2.2,2.24-3.87,4.04-5.04,1.8-1.17,3.8-1.76,6.03-1.76,1.63,0,3.08.34,4.35,1.03,1.27.69,2.31,1.58,3.1,2.68v-13.37h4.55v37.26h-4.25ZM579.11,694.32c0,3.46.73,6.04,2.19,7.75,1.46,1.71,3.18,2.57,5.16,2.57s3.7-.82,5.1-2.46c1.4-1.63,2.09-4.13,2.09-7.48,0-3.7-.71-6.41-2.13-8.14-1.42-1.73-3.18-2.59-5.26-2.59s-3.73.83-5.1,2.49c-1.36,1.66-2.05,4.28-2.05,7.85Z"/>
    <path class="cls-1" d="M606.31,707.79v-27h4.12v4.09c1.05-1.91,2.02-3.18,2.91-3.79s1.87-.92,2.94-.92c1.54,0,3.11.49,4.7,1.47l-1.58,4.25c-1.12-.66-2.23-.99-3.36-.99-1,0-1.9.3-2.69.9-.8.6-1.36,1.44-1.71,2.5-.51,1.63-.76,3.41-.76,5.34v14.14h-4.58Z"/>
    <path class="cls-1" d="M623.36,675.79v-5.26h4.58v5.26h-4.58ZM623.36,707.79v-27h4.58v27h-4.58Z"/>
    <path class="cls-1" d="M635.27,707.79v-37.26h4.58v37.26h-4.58Z"/>
    <path class="cls-1" d="M647.3,707.79v-37.26h4.58v37.26h-4.58Z"/>
    <path class="cls-1" d="M658.93,694.29c0-5,1.39-8.7,4.17-11.11,2.32-2,5.15-3,8.49-3,3.71,0,6.74,1.22,9.1,3.65,2.36,2.43,3.53,5.79,3.53,10.08,0,3.47-.52,6.21-1.56,8.2s-2.56,3.54-4.55,4.64-4.16,1.65-6.52,1.65c-3.78,0-6.83-1.21-9.17-3.64-2.33-2.42-3.49-5.91-3.49-10.47ZM663.64,694.29c0,3.46.75,6.05,2.26,7.77,1.51,1.72,3.4,2.58,5.69,2.58s4.16-.86,5.67-2.59c1.51-1.73,2.26-4.37,2.26-7.91,0-3.34-.76-5.87-2.27-7.59-1.52-1.72-3.4-2.58-5.65-2.58s-4.19.85-5.69,2.57c-1.51,1.71-2.26,4.29-2.26,7.75Z"/>
    <path class="cls-1" d="M687.76,699.73l4.52-.71c.25,1.81.96,3.2,2.12,4.17,1.16.96,2.78,1.45,4.87,1.45s3.66-.43,4.68-1.29c1.02-.85,1.53-1.86,1.53-3.01,0-1.04-.45-1.85-1.35-2.44-.63-.41-2.19-.92-4.68-1.55-3.36-.84-5.68-1.58-6.98-2.2-1.3-.62-2.28-1.47-2.95-2.57-.67-1.09-1-2.3-1-3.62,0-1.21.28-2.32.82-3.35.55-1.02,1.3-1.88,2.25-2.55.71-.53,1.68-.97,2.91-1.33,1.23-.36,2.55-.55,3.95-.55,2.12,0,3.98.31,5.58.92s2.78,1.44,3.54,2.48c.76,1.04,1.29,2.44,1.58,4.18l-4.48.61c-.2-1.39-.79-2.47-1.77-3.25-.97-.78-2.35-1.17-4.13-1.17-2.1,0-3.6.35-4.5,1.04-.9.7-1.34,1.51-1.34,2.44,0,.59.19,1.13.56,1.6.37.49.95.9,1.75,1.22.46.17,1.8.56,4.04,1.17,3.24.86,5.5,1.57,6.78,2.12,1.28.55,2.28,1.35,3.01,2.4.73,1.05,1.09,2.35,1.09,3.91s-.44,2.96-1.33,4.31-2.17,2.39-3.85,3.13c-1.68.73-3.58,1.1-5.69,1.1-3.51,0-6.18-.73-8.02-2.19-1.84-1.46-3.01-3.62-3.52-6.48Z"/>
    <path class="cls-1" d="M736.18,707.79h-4.25v-37.26h4.57v13.29c1.93-2.42,4.4-3.64,7.4-3.64,1.66,0,3.23.34,4.72,1.01,1.48.67,2.7,1.61,3.66,2.82.95,1.21,1.71,2.68,2.25,4.38.54,1.71.82,3.54.82,5.49,0,4.63-1.15,8.2-3.43,10.73-2.29,2.52-5.03,3.79-8.24,3.79s-5.68-1.33-7.5-3.99v3.38ZM736.12,694.09c0,3.23.44,5.57,1.32,7.02,1.44,2.35,3.39,3.53,5.85,3.53,2,0,3.73-.87,5.19-2.6,1.46-1.74,2.19-4.33,2.19-7.77s-.7-6.13-2.1-7.8-3.09-2.52-5.07-2.52-3.73.87-5.19,2.6c-1.46,1.74-2.19,4.25-2.19,7.54Z"/>
    <path class="cls-1" d="M760.98,675.79v-5.26h4.58v5.26h-4.58ZM760.98,707.79v-27h4.58v27h-4.58Z"/>
    <path class="cls-1" d="M792.67,699.1l4.73.58c-.75,2.76-2.13,4.9-4.14,6.43-2.02,1.52-4.59,2.29-7.73,2.29-3.95,0-7.08-1.21-9.39-3.65s-3.47-5.84-3.47-10.23,1.17-8.06,3.51-10.57,5.37-3.76,9.1-3.76,6.56,1.23,8.84,3.69c2.29,2.46,3.43,5.91,3.43,10.37,0,.27,0,.68-.03,1.22h-20.13c.17,2.97,1.01,5.24,2.51,6.81,1.51,1.58,3.39,2.36,5.65,2.36,1.68,0,3.11-.44,4.29-1.33,1.19-.88,2.13-2.29,2.82-4.22ZM777.65,691.7h15.07c-.2-2.27-.78-3.98-1.73-5.11-1.46-1.76-3.35-2.64-5.67-2.64-2.1,0-3.87.7-5.3,2.11-1.43,1.41-2.22,3.29-2.38,5.65Z"/>
    <path class="cls-1" d="M804.34,707.79v-27h4.12v3.84c1.98-2.96,4.85-4.45,8.59-4.45,1.63,0,3.12.29,4.49.88,1.36.58,2.38,1.35,3.06,2.3.68.95,1.15,2.08,1.42,3.38.17.85.26,2.33.26,4.45v16.6h-4.58v-16.42c0-1.86-.18-3.25-.54-4.18-.35-.93-.99-1.66-1.89-2.21s-1.97-.82-3.19-.82c-1.95,0-3.63.62-5.04,1.85-1.42,1.24-2.12,3.58-2.12,7.04v14.74h-4.57Z"/>
  </g>
  <g>
    <path class="cls-1" d="M843.83,707.79v-37.26h4.57v13.37c2.14-2.47,4.83-3.72,8.08-3.72,2,0,3.74.4,5.21,1.18,1.47.79,2.53,1.88,3.17,3.27.63,1.39.95,3.41.95,6.05v17.11h-4.58v-17.11c0-2.29-.49-3.95-1.48-5-.99-1.04-2.39-1.56-4.21-1.56-1.35,0-2.63.35-3.82,1.05-1.2.7-2.05,1.66-2.56,2.86-.51,1.21-.76,2.86-.76,4.98v14.77h-4.57Z"/>
    <path class="cls-1" d="M892.46,699.1l4.73.58c-.75,2.76-2.13,4.9-4.14,6.43-2.02,1.52-4.59,2.29-7.73,2.29-3.95,0-7.08-1.21-9.39-3.65-2.31-2.43-3.47-5.84-3.47-10.23s1.17-8.06,3.51-10.57c2.34-2.51,5.37-3.76,9.1-3.76s6.56,1.23,8.84,3.69c2.29,2.46,3.43,5.91,3.43,10.37,0,.27,0,.68-.03,1.22h-20.13c.17,2.97,1.01,5.24,2.51,6.81,1.51,1.58,3.39,2.36,5.65,2.36,1.68,0,3.11-.44,4.29-1.33,1.19-.88,2.13-2.29,2.82-4.22ZM877.44,691.7h15.07c-.2-2.27-.78-3.98-1.73-5.11-1.46-1.76-3.35-2.64-5.67-2.64-2.1,0-3.87.7-5.3,2.11-1.43,1.41-2.22,3.29-2.38,5.65Z"/>
    <path class="cls-1" d="M920.55,697.9l4.5.58c-.49,3.1-1.75,5.53-3.77,7.28-2.02,1.75-4.51,2.63-7.46,2.63-3.69,0-6.66-1.21-8.91-3.62-2.24-2.41-3.37-5.87-3.37-10.38,0-2.92.48-5.47,1.45-7.65.97-2.19,2.44-3.83,4.41-4.92,1.97-1.09,4.12-1.64,6.44-1.64,2.93,0,5.33.74,7.19,2.23,1.86,1.48,3.06,3.59,3.58,6.31l-4.45.69c-.43-1.81-1.18-3.18-2.25-4.09s-2.38-1.37-3.9-1.37c-2.31,0-4.18.83-5.62,2.48-1.44,1.65-2.16,4.27-2.16,7.84s.7,6.26,2.09,7.91c1.39,1.64,3.2,2.47,5.44,2.47,1.8,0,3.3-.55,4.5-1.65,1.2-1.1,1.97-2.8,2.29-5.08Z"/>
    <path class="cls-1" d="M930.84,707.79v-37.26h4.57v13.37c2.14-2.47,4.83-3.72,8.08-3.72,2,0,3.74.4,5.21,1.18,1.47.79,2.53,1.88,3.17,3.27.63,1.39.95,3.41.95,6.05v17.11h-4.58v-17.11c0-2.29-.49-3.95-1.48-5-.99-1.04-2.39-1.56-4.21-1.56-1.35,0-2.63.35-3.82,1.05-1.2.7-2.05,1.66-2.56,2.86-.51,1.21-.76,2.86-.76,4.98v14.77h-4.57Z"/>
    <path class="cls-1" d="M959.28,694.29c0-5,1.39-8.7,4.17-11.11,2.32-2,5.15-3,8.49-3,3.71,0,6.74,1.22,9.1,3.65,2.36,2.43,3.53,5.79,3.53,10.08,0,3.47-.52,6.21-1.56,8.2-1.04,1.99-2.56,3.54-4.55,4.64s-4.16,1.65-6.52,1.65c-3.78,0-6.83-1.21-9.17-3.64-2.33-2.42-3.49-5.91-3.49-10.47ZM963.99,694.29c0,3.46.75,6.05,2.26,7.77,1.51,1.72,3.4,2.58,5.69,2.58s4.16-.86,5.67-2.59c1.51-1.73,2.26-4.37,2.26-7.91,0-3.34-.76-5.87-2.27-7.59-1.52-1.72-3.4-2.58-5.65-2.58s-4.19.85-5.69,2.57c-1.51,1.71-2.26,4.29-2.26,7.75Z"/>
    <path class="cls-1" d="M988.11,699.73l4.52-.71c.25,1.81.96,3.2,2.12,4.17,1.16.96,2.78,1.45,4.87,1.45s3.66-.43,4.68-1.29c1.02-.85,1.53-1.86,1.53-3.01,0-1.04-.45-1.85-1.35-2.44-.63-.41-2.19-.92-4.68-1.55-3.36-.84-5.68-1.58-6.98-2.2-1.3-.62-2.28-1.47-2.95-2.57-.67-1.09-1-2.3-1-3.62,0-1.21.28-2.32.82-3.35.55-1.02,1.3-1.88,2.25-2.55.71-.53,1.68-.97,2.91-1.33,1.23-.36,2.55-.55,3.95-.55,2.12,0,3.98.31,5.58.92s2.78,1.44,3.54,2.48c.76,1.04,1.29,2.44,1.58,4.18l-4.48.61c-.2-1.39-.79-2.47-1.77-3.25-.97-.78-2.35-1.17-4.13-1.17-2.1,0-3.6.35-4.5,1.04-.9.7-1.34,1.51-1.34,2.44,0,.59.19,1.13.56,1.6.37.49.95.9,1.75,1.22.46.17,1.8.56,4.04,1.17,3.24.86,5.5,1.57,6.78,2.12,1.28.55,2.28,1.35,3.01,2.4.73,1.05,1.09,2.35,1.09,3.91s-.44,2.96-1.33,4.31-2.17,2.39-3.85,3.13c-1.68.73-3.58,1.1-5.69,1.1-3.51,0-6.18-.73-8.02-2.19s-3.01-3.62-3.52-6.48Z"/>
  </g>
  <path class="cls-2" d="M1024.36,564.92h-2.97l.54.3.91.97.3.3v1.21l-.3.3-.3.61-.3.36-.85.3h-.61,3.27l.54-.3.3-.97v-1.51l-.3-.67-.24-.91ZM1021.7,570.79h-2.97.3l.54.3h.3l.3.3.3.36.61.91.61.61,2.06,3.39h2.06l-2.06-3.39-.61-.91-.3-.3-.91-.97h-.24v-.3ZM1021.39,563.71h-6.84v12.95h1.82v-5.87h5.33-.3l1.15-.3.91-.3.61-.91h-7.69v-4.36h7.99l-.3-.3-.61-.61-1.21-.3h-.85ZM1027.87,558.74h-4.72l2.97,1.21,3.81,4.06,1.21,3.09v6.17l-1.21,3.09-3.81,4.06-2.97,1.21h4.72l4.18-4.3,1.45-3.45v-7.38l-1.45-3.45-4.18-4.3ZM1024.06,556.26h-7.45l-3.21,1.57-4.78,5.21-1.45,3.45v7.38l1.45,3.45,4.78,5.21,3.21,1.57h7.45l3.21-1.57.61-.91h-10.65l-2.66-1.21-4.12-4.06-1.21-3.09v-6.17l1.21-3.09,4.12-4.06,2.66-1.21h10.65l-.61-.91-3.21-1.57Z"/>
</svg>