<svg width="147" height="100" viewBox="0 0 147 100" fill="none" xmlns="http://www.w3.org/2000/svg">
<g clip-path="url(#clip0_2004_158)">
<path d="M31.8824 48.3769C28.6725 30.4088 40.698 13.2204 58.5751 10.0196C74.2615 7.2115 89.2274 16.943 94.8565 31.3058C94.7745 30.6081 94.6749 29.9105 94.5519 29.2129C91.0784 9.83197 72.0708 -2.97727 52.0791 0.598765C32.0874 4.1748 19.1716 23.1219 22.6334 42.5029C24.7245 54.2158 31.8238 63.6425 42.051 68.391C36.3517 63.1325 33.2179 55.8925 31.8766 48.3769H31.8824Z" fill="#D6B393"/>
<path d="M30.4766 44.1444C30.4766 26.0591 45.1965 11.4032 63.1908 11.4032C78.9768 11.4032 91.8691 23.5089 94.8565 38.4931C94.8975 37.8014 94.9209 37.1037 94.9209 36.4003C94.9209 16.8962 78.6136 1.08545 58.4989 1.08545C38.3842 1.08545 22.4811 17.3066 22.4811 36.8048C22.4811 48.5881 27.7587 59.0231 36.9081 65.4365C32.269 59.3103 30.4766 51.7069 30.4766 44.1444Z" fill="white"/>
<path d="M83.8385 33.4103C86.8083 40.4334 83.1649 44.8126 81.6712 46.413C77.4948 50.886 69.0424 49.9949 65.3756 45.6685C65.4928 45.8971 65.6217 46.1257 65.7447 46.3544C69.3353 53.1019 78.0981 54.6906 84.2017 51.2025C90.3052 47.7144 93.6264 40.9082 89.6726 32.7537C87.7572 28.8083 82.3331 26.0179 77.6823 26.7565C80.283 27.97 82.8076 30.9598 83.8444 33.4044L83.8385 33.4103Z" fill="#D6B393"/>
<path d="M85.0862 35.6088C86.3162 43.136 81.7415 46.5303 79.914 47.7321C74.8004 51.0912 66.799 48.2304 64.251 43.1595C64.3096 43.4115 64.3799 43.6636 64.4443 43.9157C66.3421 51.3199 74.4841 54.9369 81.2319 52.9906C87.9798 51.0443 92.8181 45.2171 90.9027 36.3533C89.9713 32.0679 85.3615 28.0698 80.6637 27.6946C82.9013 29.4885 84.6527 32.9883 85.0862 35.6088Z" fill="#D6B393"/>
<path d="M84.5473 34.9756C86.7731 42.2683 82.6963 46.2489 81.0445 47.6852C76.4288 51.7009 68.1111 49.9363 64.9129 45.2523C65.0008 45.4926 65.1062 45.733 65.2058 45.9734C68.076 53.0609 76.6279 55.5524 83.0536 52.7151C89.4851 49.8835 93.4975 43.4584 90.4106 34.9345C88.917 30.8075 83.8092 27.4718 79.1056 27.7239C81.5658 29.2012 83.7682 32.4372 84.5414 34.9756H84.5473Z" fill="white"/>
<path d="M86.984 53.2076C78.9006 58.9586 69.1186 56.6664 63.7063 49.0512C58.9558 42.3681 59.2428 34.9464 61.3574 29.4944C61.3574 29.4944 60.8536 29.8813 60.016 30.6727C52.1201 40.6153 57.9307 52.0469 61.6561 55.4881C68.5856 61.8897 77.8756 63.6543 86.9137 57.6747C92.3085 54.1045 95.2606 48.3712 95.3778 42.456C94.0364 46.3662 90.3638 50.7982 86.9781 53.2076H86.984Z" fill="#D6B393"/>
<path d="M81.8118 56.7307C72.3109 59.5798 63.7824 54.2626 61.1055 45.3108C58.7567 37.4553 61.4043 30.5201 65.1648 26.0354C65.1648 26.0354 64.5615 26.2406 63.5188 26.7154C52.8464 33.592 54.6857 46.284 57.1048 50.7394C61.6093 59.0287 69.8449 63.6893 80.3181 60.934C86.5681 59.2925 91.2072 54.8078 93.2164 49.2445C90.6918 52.5156 85.7891 55.5348 81.8118 56.7248V56.7307Z" fill="#D6B393"/>
<path d="M84.6117 56.5491C75.7258 60.9634 66.4241 57.1646 62.2712 48.7932C58.6278 41.4477 60.0746 34.1608 63.0151 29.1074C63.0151 29.1074 62.4527 29.4064 61.5038 30.0571C52.1435 38.6396 56.0973 50.8392 59.237 54.8197C65.0769 62.2297 73.9803 65.4306 83.8385 60.9459C89.7253 58.2668 93.5385 53.0669 94.5812 47.2455C92.6423 50.8978 88.3195 54.6966 84.6058 56.5432L84.6117 56.5491Z" fill="white"/>
<path d="M52.6941 39.7769C54.387 30.6199 62.4293 22.4537 70.6122 22.2895C70.2257 22.1957 69.8449 22.0198 69.4466 22.0316C56.8764 22.4361 48.5529 28.9902 45.9814 40.5683" fill="#D6B393"/>
<path d="M73.8222 65.319C66.3363 64.7094 56.1735 60.4767 53.3853 49.01C50.9369 38.9443 55.3827 26.991 63.6184 23.0925C63.2728 23.1394 62.7339 23.2039 62.318 23.3681C49.2499 28.3628 43.5037 38.9736 46.163 51.9001C48.9102 65.2428 62.031 71.5976 74.2556 69.5517C80.2888 68.5433 87.0601 64.2345 88.3546 61.1802C84.354 63.9004 78.9826 65.747 73.828 65.3249L73.8222 65.319Z" fill="#D6B393"/>
<path d="M70.7528 66.257C63.431 64.5804 53.9769 58.9408 52.8523 47.1927C51.8624 36.8808 57.9718 25.6837 66.6819 23.0046C66.3363 23.0046 65.7915 22.9929 65.3522 23.0867C51.7042 26.1644 44.5053 35.8432 45.2903 49.0159C46.1044 62.6165 58.1826 70.7828 70.5771 70.5014C76.6923 70.3666 84.0084 67.0661 85.7246 64.2287C81.3784 66.3508 75.7961 67.4061 70.7528 66.2512V66.257Z" fill="white"/>
<path d="M54.0589 67.4825C43.9957 59.621 40.575 44.5313 46.7956 32.0445C52.4657 20.6657 66.2953 15.882 77.9576 19.7453C77.489 19.4405 77.0145 19.1474 76.5225 18.866C62.8862 11.1159 45.3547 16.2514 37.365 30.3386C29.3754 44.4258 33.9267 61.6084 47.563 69.3584C55.7986 74.0424 64.7606 73.5324 67.3262 72.8465C61.6913 71.9847 57.673 70.2964 54.0648 67.4766L54.0589 67.4825Z" fill="#D6B393"/>
<path d="M46.7956 62.2882C39.6788 51.6832 41.1197 36.2711 50.9134 26.3461C59.8403 17.3005 74.4723 17.0602 84.354 24.3646C84.0025 23.9308 83.6393 23.5029 83.2586 23.0808C72.7092 11.4675 54.4514 10.8871 42.4786 21.7852C30.5 32.6833 29.4867 50.4345 40.0361 62.0478C46.409 69.0651 55.0781 71.3749 57.7316 71.5214C52.6473 68.942 49.3495 66.087 46.8015 62.2882H46.7956Z" fill="#D6B393"/>
<path d="M50.521 66.1516C41.6527 56.9653 40.3582 41.5414 48.2541 30.0454C55.453 19.5693 69.8098 16.7554 80.8219 22.2074C80.4001 21.8381 79.9667 21.4805 79.5215 21.1405C67.0977 11.5672 49.0215 14.2112 39.1457 27.0438C29.27 39.8765 31.3904 57.5339 43.8142 67.1072C51.3235 72.8933 60.262 73.6378 62.8979 73.3154C57.4387 71.6739 53.6899 69.4404 50.5151 66.1516H50.521Z" fill="white"/>
<path d="M9.21386 88.5039C8.93855 88.6211 8.69254 88.7384 8.46995 88.838C8.24737 88.9435 7.96035 89.0549 7.60304 89.1663C7.29845 89.2601 6.97043 89.3422 6.61312 89.4067C6.25582 89.4712 5.86336 89.5063 5.43576 89.5063C4.62743 89.5063 3.89524 89.395 3.2392 89.1663C2.58316 88.9377 2.00912 88.5859 1.51709 88.1052C1.04263 87.6304 0.667754 87.0324 0.398309 86.2996C0.128863 85.5727 -0.00585938 84.7227 -0.00585938 83.7554C-0.00585938 82.8408 0.123006 82.0201 0.380736 81.299C0.638466 80.578 1.01335 79.9683 1.49952 79.47C1.97398 78.9893 2.54216 78.6199 3.20991 78.3679C3.87767 78.1158 4.62157 77.9868 5.43576 77.9868C6.03323 77.9868 6.6307 78.0572 7.2223 78.2037C7.81391 78.3503 8.47581 78.6024 9.20214 78.9658V80.7187H9.09085C8.48167 80.2086 7.87249 79.8335 7.26916 79.599C6.66584 79.3645 6.02152 79.2472 5.33619 79.2472C4.77387 79.2472 4.27012 79.3352 3.81909 79.5169C3.36806 79.6986 2.96975 79.98 2.61245 80.3669C2.27271 80.7421 2.00327 81.2111 1.80997 81.7798C1.61667 82.3484 1.52295 83.0108 1.52295 83.7554C1.52295 84.4999 1.62839 85.2092 1.83926 85.772C2.05013 86.3348 2.32543 86.7921 2.65345 87.1438C2.99904 87.5131 3.40907 87.7828 3.87181 87.9587C4.33455 88.1345 4.82658 88.2225 5.3479 88.2225C6.05666 88.2225 6.72442 88.0994 7.34531 87.859C7.96621 87.6187 8.5461 87.2493 9.09085 86.7628H9.19628V88.4921L9.21386 88.5039Z" fill="white"/>
<path d="M18.088 85.2855H11.9493C11.9493 85.7955 12.0255 86.2469 12.1836 86.628C12.3359 87.009 12.5468 87.3197 12.8162 87.566C13.074 87.8063 13.3844 87.9822 13.7359 88.1053C14.0932 88.2225 14.4856 88.287 14.9132 88.287C15.4814 88.287 16.0496 88.1757 16.6236 87.947C17.1976 87.7184 17.6077 87.4956 17.8478 87.2787H17.924V88.8088C17.4495 89.0081 16.9692 89.1723 16.4772 89.3071C15.9851 89.4419 15.4697 89.5064 14.9249 89.5064C13.5426 89.5064 12.4648 89.1312 11.6857 88.3808C10.9067 87.6305 10.5201 86.5694 10.5201 85.1917C10.5201 83.8141 10.8891 82.7471 11.633 81.944C12.3769 81.1408 13.3551 80.7422 14.5676 80.7422C15.6923 80.7422 16.5592 81.0705 17.1684 81.7271C17.7775 82.3837 18.0821 83.3158 18.0821 84.5293V85.2914L18.088 85.2855ZM16.7232 84.2127C16.7232 83.474 16.5357 82.9054 16.1667 82.5009C15.8036 82.0964 15.2471 81.8971 14.4973 81.8971C13.7476 81.8971 13.1501 82.1198 12.7049 82.5595C12.2598 83.0051 12.0079 83.5503 11.9493 84.2068H16.7232V84.2127Z" fill="white"/>
<path d="M25.3513 82.501H25.2751C25.0643 82.4541 24.8651 82.4131 24.666 82.3955C24.4727 82.3721 24.2384 82.3603 23.9689 82.3603C23.5355 82.3603 23.1196 82.4541 22.7154 82.6476C22.3112 82.841 21.9247 83.0873 21.5498 83.3921V89.3131H20.1498V80.9709H21.5498V82.202C22.1062 81.7565 22.5983 81.4341 23.02 81.2523C23.4476 81.0648 23.8811 80.9709 24.3204 80.9709C24.5664 80.9709 24.7421 80.9768 24.8475 80.9885C24.9588 81.0003 25.1228 81.0237 25.3396 81.0589V82.501H25.3513Z" fill="white"/>
<path d="M33.2121 89.313H31.818V88.4219C31.695 88.504 31.5251 88.6271 31.3142 88.7737C31.1034 88.9261 30.8984 89.0433 30.6992 89.1371C30.4649 89.2544 30.1954 89.3482 29.8909 89.4244C29.5863 89.5006 29.2348 89.5416 28.8248 89.5416C28.075 89.5416 27.4366 89.2954 26.9152 88.7971C26.3939 88.2988 26.1303 87.6657 26.1303 86.8918C26.1303 86.2587 26.2651 85.7487 26.5345 85.3559C26.804 84.9631 27.1905 84.6583 27.6943 84.4355C28.2039 84.2127 28.8131 84.0603 29.5218 83.9783C30.2306 83.8962 30.9979 83.8376 31.8121 83.7965V83.5796C31.8121 83.2631 31.7535 82.9992 31.6423 82.7882C31.531 82.5772 31.3728 82.413 31.1619 82.2958C30.9628 82.1785 30.7226 82.1023 30.4473 82.0613C30.172 82.0202 29.8791 82.0026 29.5746 82.0026C29.2055 82.0026 28.7955 82.0495 28.3445 82.1492C27.8934 82.2489 27.4248 82.3896 26.9445 82.5713H26.8684V81.1467C27.1437 81.0705 27.5361 80.9885 28.0575 80.9005C28.5788 80.8126 29.0825 80.7657 29.5863 80.7657C30.172 80.7657 30.6816 80.8126 31.1209 80.9122C31.5544 81.0119 31.9351 81.176 32.2514 81.4105C32.5619 81.6392 32.802 81.9382 32.9661 82.3016C33.1301 82.6651 33.2121 83.1165 33.2121 83.6558V89.313ZM31.818 87.2553V84.9338C31.3904 84.9573 30.8866 84.9983 30.3067 85.0452C29.7269 85.0921 29.27 85.1683 28.9302 85.2621C28.5261 85.3794 28.2039 85.5552 27.952 85.7956C27.706 86.0359 27.5771 86.3701 27.5771 86.7922C27.5771 87.267 27.7236 87.6305 28.0106 87.8709C28.2976 88.1112 28.7369 88.2343 29.3285 88.2343C29.8206 88.2343 30.2716 88.1405 30.6816 87.9471C31.0916 87.7536 31.4665 87.525 31.818 87.2553ZM32.3217 76.7969L30.2833 79.5874H29.1704L30.5059 76.7969H32.3159H32.3217Z" fill="white"/>
<path d="M47.932 89.313H46.532V84.5644C46.532 84.2068 46.5145 83.861 46.4852 83.5268C46.45 83.1927 46.3856 82.9288 46.2802 82.7295C46.163 82.5185 45.999 82.3543 45.7881 82.2429C45.5714 82.1316 45.2668 82.0788 44.8626 82.0788C44.4585 82.0788 44.0777 82.1785 43.6853 82.3719C43.2928 82.5712 42.9004 82.8175 42.5079 83.1223C42.5255 83.2395 42.5372 83.3685 42.5431 83.5209C42.5548 83.6734 42.5606 83.8258 42.5606 83.9723V89.313H41.1607V84.5644C41.1607 84.1951 41.1431 83.8492 41.1138 83.5151C41.0787 83.1868 41.0143 82.9171 40.9088 82.7178C40.7917 82.5068 40.6277 82.3426 40.4168 82.2371C40.2001 82.1316 39.8955 82.0788 39.4913 82.0788C39.0871 82.0788 38.724 82.1726 38.3374 82.3602C37.9508 82.5478 37.57 82.7881 37.1835 83.0871V89.313H35.7835V80.9708H37.1835V81.8971C37.6228 81.5336 38.0562 81.2522 38.4897 81.047C38.9231 80.8418 39.3917 80.7422 39.8838 80.7422C40.4519 80.7422 40.9323 80.8594 41.3247 81.0998C41.7172 81.3401 42.0159 81.6684 42.2092 82.0905C42.7774 81.6157 43.2928 81.2698 43.7614 81.0588C44.23 80.8477 44.7279 80.7422 45.261 80.7422C46.1747 80.7422 46.8483 81.0177 47.2877 81.5746C47.7211 82.1316 47.9378 82.9054 47.9378 83.902V89.313H47.932Z" fill="white"/>
<path d="M52.1845 79.5757H50.603V78.1218H52.1845V79.5757ZM52.0967 89.3131H50.6967V80.9709H52.0967V89.3131Z" fill="white"/>
<path d="M61.0059 88.7853C60.5373 89.0081 60.0922 89.184 59.6763 89.3071C59.2604 89.4302 58.8094 89.4947 58.3349 89.4947C57.7316 89.4947 57.181 89.4067 56.6772 89.2309C56.1735 89.055 55.7459 88.7853 55.3886 88.4277C55.0254 88.0701 54.7443 87.6187 54.5451 87.0677C54.3459 86.5166 54.2464 85.8835 54.2464 85.1507C54.2464 83.7847 54.6212 82.7178 55.371 81.9381C56.1208 81.1643 57.1107 80.7715 58.3349 80.7715C58.8152 80.7715 59.2838 80.836 59.7407 80.9708C60.2035 81.1056 60.6193 81.2698 61.0059 81.4632V83.0226H60.9298C60.5022 82.6885 60.0629 82.4305 59.606 82.2547C59.1491 82.0729 58.7039 81.985 58.2763 81.985C57.4797 81.985 56.853 82.2547 56.3902 82.7881C55.9275 83.3216 55.699 84.1072 55.699 85.1448C55.699 86.1824 55.9216 86.9211 56.3726 87.4604C56.8237 87.9998 57.4563 88.2694 58.2705 88.2694C58.5516 88.2694 58.8445 88.2343 59.1374 88.1581C59.4303 88.0818 59.6938 87.988 59.9281 87.8649C60.1332 87.7594 60.3206 87.648 60.5022 87.5308C60.6838 87.4135 60.8243 87.3139 60.9298 87.2259H61.0059V88.7736V88.7853Z" fill="white"/>
<path d="M69.142 89.3129H67.7479V88.4219C67.6249 88.5039 67.4551 88.627 67.2442 88.7736C67.0333 88.926 66.8283 89.0433 66.6291 89.1371C66.3948 89.2543 66.1254 89.3481 65.8208 89.4243C65.5162 89.5005 65.1648 89.5416 64.7547 89.5416C64.005 89.5416 63.3665 89.2953 62.8452 88.797C62.3239 88.2987 62.0603 87.6656 62.0603 86.8918C62.0603 86.2586 62.195 85.7486 62.4645 85.3558C62.7339 84.9631 63.1205 84.6582 63.6242 84.4355C64.1338 84.2127 64.743 84.0603 65.4518 83.9782C66.1605 83.8961 66.9279 83.8375 67.7421 83.7965V83.5796C67.7421 83.263 67.6835 82.9992 67.5722 82.7881C67.4609 82.5771 67.3028 82.4129 67.0919 82.2957C66.8927 82.1785 66.6526 82.1022 66.3773 82.0612C66.102 82.0202 65.8091 82.0026 65.5045 82.0026C65.1355 82.0026 64.7255 82.0495 64.2744 82.1491C63.8234 82.2488 63.3548 82.3895 62.8745 82.5712H62.7983V81.1467C63.0736 81.0705 63.4661 80.9884 63.9874 80.9005C64.5087 80.8125 65.0125 80.7656 65.5162 80.7656C66.102 80.7656 66.6116 80.8125 67.0509 80.9122C67.4843 81.0118 67.8651 81.176 68.1814 81.4105C68.4918 81.6391 68.732 81.9381 68.896 82.3016C69.06 82.665 69.142 83.1164 69.142 83.6558V89.3129ZM67.7479 87.2552V84.9338C67.3203 84.9572 66.8166 84.9982 66.2367 85.0451C65.6568 85.092 65.1999 85.1683 64.8602 85.262C64.456 85.3793 64.1338 85.5552 63.882 85.7955C63.636 86.0359 63.5071 86.37 63.5071 86.7921C63.5071 87.267 63.6535 87.6304 63.9406 87.8708C64.2276 88.1111 64.6669 88.2343 65.2585 88.2343C65.7505 88.2343 66.2015 88.1405 66.6116 87.947C67.0216 87.7535 67.3965 87.5249 67.7479 87.2552Z" fill="white"/>
<path d="M77.7935 86.9035C77.7935 87.6656 77.4772 88.287 76.8505 88.7795C76.2237 89.2719 75.3627 89.5123 74.2732 89.5123C73.6581 89.5123 73.09 89.436 72.5745 89.2895C72.059 89.1429 71.6256 88.9846 71.28 88.8088V87.2318H71.3561C71.8013 87.566 72.2933 87.8298 72.8322 88.0291C73.3711 88.2284 73.8924 88.3222 74.3903 88.3222C75.0054 88.3222 75.4915 88.2225 75.8371 88.0232C76.1827 87.8239 76.3585 87.5132 76.3585 87.0852C76.3585 86.7569 76.2647 86.5107 76.0773 86.3407C75.8899 86.1707 75.5267 86.0241 74.9878 85.9069C74.7886 85.86 74.5309 85.8072 74.2088 85.7486C73.8866 85.69 73.5937 85.6255 73.3301 85.5552C72.5979 85.3617 72.0825 85.0744 71.772 84.6993C71.4674 84.3241 71.3151 83.8609 71.3151 83.3157C71.3151 82.9699 71.3854 82.6474 71.526 82.3426C71.6666 82.0378 71.8833 81.7681 72.1703 81.5277C72.4456 81.2932 72.8029 81.1056 73.2305 80.9708C73.6581 80.836 74.1443 80.7656 74.6715 80.7656C75.1694 80.7656 75.6731 80.8242 76.1827 80.9474C76.6923 81.0705 77.1141 81.217 77.4538 81.3929V82.8937H77.3777C77.0204 82.6298 76.5869 82.4071 76.0714 82.2253C75.5618 82.0436 75.0581 81.9557 74.5661 81.9557C74.074 81.9557 73.623 82.0553 73.2657 82.2488C72.9142 82.4481 72.7385 82.7354 72.7385 83.1282C72.7385 83.474 72.844 83.732 73.0607 83.902C73.2716 84.0778 73.6054 84.2186 74.074 84.3299C74.3318 84.3886 74.6246 84.4472 74.9409 84.5117C75.2631 84.5703 75.5267 84.6289 75.7434 84.6758C76.3936 84.8224 76.8973 85.0803 77.2488 85.4438C77.6003 85.8131 77.776 86.2997 77.776 86.9094L77.7935 86.9035Z" fill="white"/>
<path d="M92.5252 89.313H85.2092V78.198H92.5252V79.5112H86.6852V82.5596H92.5252V83.8728H86.6852V87.9999H92.5252V89.313Z" fill="white"/>
<path d="M96.2388 89.313H94.8389V77.6938H96.2388V89.313Z" fill="white"/>
<path d="M112.71 88.5039C112.435 88.6211 112.189 88.7384 111.966 88.838C111.744 88.9435 111.457 89.0549 111.099 89.1663C110.795 89.2601 110.467 89.3422 110.109 89.4067C109.752 89.4712 109.36 89.5063 108.932 89.5063C108.124 89.5063 107.392 89.395 106.735 89.1663C106.079 88.9377 105.505 88.5859 105.013 88.1052C104.539 87.6304 104.164 87.0324 103.895 86.2996C103.625 85.5727 103.49 84.7227 103.49 83.7554C103.49 82.8408 103.619 82.0201 103.877 81.299C104.135 80.578 104.51 79.9683 104.996 79.47C105.47 78.9893 106.038 78.6199 106.706 78.3679C107.374 78.1158 108.118 77.9868 108.932 77.9868C109.53 77.9868 110.127 78.0572 110.719 78.2037C111.31 78.3503 111.972 78.6024 112.698 78.9658V80.7187H112.587C111.978 80.2086 111.369 79.8335 110.765 79.599C110.162 79.3645 109.518 79.2472 108.832 79.2472C108.27 79.2472 107.766 79.3352 107.315 79.5169C106.864 79.6986 106.466 79.98 106.109 80.3669C105.769 80.7421 105.5 81.2111 105.306 81.7798C105.113 82.3484 105.019 83.0108 105.019 83.7554C105.019 84.4999 105.125 85.2092 105.336 85.772C105.546 86.3348 105.822 86.7921 106.15 87.1438C106.495 87.5131 106.905 87.7828 107.368 87.9587C107.831 88.1345 108.323 88.2225 108.844 88.2225C109.553 88.2225 110.221 88.0994 110.842 87.859C111.463 87.6187 112.042 87.2493 112.587 86.7628H112.693V88.4921L112.71 88.5039Z" fill="white"/>
<path d="M116.119 79.5755H114.538V78.1216H116.119V79.5755ZM116.031 89.3128H114.631V80.9707H116.031V89.3128Z" fill="white"/>
<path d="M125.573 89.313H124.173V84.5644C124.173 84.1834 124.15 83.8199 124.103 83.4858C124.056 83.1516 123.974 82.8878 123.857 82.7002C123.734 82.4892 123.552 82.3368 123.318 82.2312C123.084 82.1257 122.779 82.0788 122.41 82.0788C122.041 82.0788 121.625 82.1726 121.209 82.3602C120.794 82.5478 120.389 82.7881 120.009 83.0871V89.313H118.609V80.9708H120.009V81.8971C120.448 81.5336 120.899 81.2522 121.368 81.047C121.836 80.8418 122.316 80.7422 122.809 80.7422C123.711 80.7422 124.396 81.0119 124.87 81.5571C125.345 82.1023 125.579 82.8819 125.579 83.902V89.313H125.573Z" fill="white"/>
<path d="M134.471 88.7853C134.002 89.0081 133.557 89.184 133.141 89.3071C132.725 89.4302 132.274 89.4947 131.8 89.4947C131.196 89.4947 130.646 89.4067 130.142 89.2309C129.638 89.055 129.211 88.7853 128.853 88.4277C128.49 88.0701 128.209 87.6187 128.01 87.0677C127.811 86.5166 127.711 85.8835 127.711 85.1507C127.711 83.7847 128.086 82.7178 128.836 81.9381C129.586 81.1643 130.576 80.7715 131.8 80.7715C132.28 80.7715 132.749 80.836 133.206 80.9708C133.668 81.1056 134.084 81.2698 134.471 81.4632V83.0226H134.395C133.967 82.6885 133.528 82.4305 133.071 82.2547C132.614 82.0729 132.169 81.985 131.741 81.985C130.945 81.985 130.318 82.2547 129.855 82.7881C129.392 83.3216 129.164 84.1072 129.164 85.1448C129.164 86.1824 129.386 86.9211 129.837 87.4604C130.289 87.9998 130.921 88.2694 131.735 88.2694C132.016 88.2694 132.309 88.2343 132.602 88.1581C132.895 88.0818 133.159 87.988 133.393 87.8649C133.598 87.7594 133.785 87.648 133.967 87.5308C134.149 87.4135 134.289 87.3139 134.395 87.2259H134.471V88.7736V88.7853Z" fill="white"/>
<path d="M143.368 85.1448C143.368 86.5049 143.023 87.5777 142.326 88.3632C141.629 89.1488 140.697 89.5416 139.526 89.5416C138.354 89.5416 137.411 89.1488 136.72 88.3632C136.029 87.5777 135.677 86.5049 135.677 85.1448C135.677 83.7848 136.023 82.7119 136.72 81.9205C137.411 81.1291 138.348 80.7363 139.526 80.7363C140.703 80.7363 141.629 81.1291 142.326 81.9205C143.023 82.7119 143.368 83.7848 143.368 85.1448ZM141.922 85.1448C141.922 84.0661 141.711 83.263 141.289 82.7354C140.867 82.2078 140.281 81.9498 139.526 81.9498C138.77 81.9498 138.173 82.2136 137.757 82.7354C137.335 83.263 137.124 84.0603 137.124 85.1448C137.124 86.2294 137.335 86.9856 137.757 87.5249C138.179 88.0643 138.77 88.3339 139.526 88.3339C140.281 88.3339 140.855 88.0643 141.283 87.5308C141.711 86.9973 141.922 86.2 141.922 85.1448Z" fill="white"/>
<path d="M72.9787 99.9121V94.5657H73.6874V99.2849H76.3175V99.918H72.9787V99.9121Z" fill="white"/>
<path d="M79.7734 99.4315C79.5274 99.6366 79.2989 99.7832 79.0705 99.8711C78.8479 99.9591 78.6019 100 78.3442 100C77.9166 100 77.5944 99.8946 77.366 99.6894C77.1375 99.4842 77.0262 99.2146 77.0262 98.8921C77.0262 98.7045 77.0672 98.5287 77.1551 98.3704C77.2429 98.2121 77.3542 98.089 77.4948 97.9952C77.6354 97.9014 77.7935 97.831 77.9693 97.7783C78.0981 97.7431 78.2914 97.7138 78.555 97.6786C79.0822 97.6141 79.4747 97.5379 79.7265 97.45C79.7265 97.362 79.7265 97.3034 79.7265 97.28C79.7265 97.0103 79.6621 96.8227 79.5391 96.7172C79.3692 96.5706 79.1232 96.4944 78.7893 96.4944C78.4789 96.4944 78.2504 96.5472 78.104 96.6586C77.9576 96.77 77.8463 96.9575 77.776 97.2331L77.1316 97.1451C77.1902 96.8696 77.2839 96.6468 77.4187 96.4768C77.5534 96.3068 77.7467 96.1778 77.9986 96.0841C78.2504 95.9903 78.5433 95.9492 78.8772 95.9492C79.2111 95.9492 79.4746 95.9903 79.6855 96.0665C79.8905 96.1427 80.0428 96.2423 80.1424 96.3596C80.242 96.4768 80.3064 96.6293 80.3474 96.8051C80.3708 96.9165 80.3826 97.1217 80.3826 97.4089V98.2824C80.3826 98.8921 80.3943 99.279 80.4236 99.4432C80.4529 99.6073 80.5056 99.7597 80.5876 99.9063H79.9023C79.832 99.7715 79.791 99.6132 79.7734 99.4256V99.4315ZM79.7207 97.9659C79.4805 98.0655 79.1232 98.1476 78.6487 98.2121C78.3793 98.2531 78.186 98.2942 78.0747 98.3411C77.9634 98.388 77.8756 98.4583 77.817 98.5521C77.7584 98.6459 77.7233 98.7514 77.7233 98.8628C77.7233 99.0387 77.7877 99.1852 77.9224 99.3025C78.0571 99.4197 78.2504 99.4784 78.5023 99.4784C78.7542 99.4784 78.9826 99.4256 79.1759 99.3142C79.3692 99.2028 79.5157 99.0504 79.6094 98.8628C79.6797 98.7162 79.7148 98.4935 79.7148 98.2062V97.9659H79.7207Z" fill="white"/>
<path d="M83.9088 99.9121V99.4256C83.6628 99.8125 83.2996 100 82.8252 100C82.5147 100 82.2335 99.9121 81.9758 99.7421C81.7181 99.5721 81.5189 99.3318 81.3725 99.0269C81.2319 98.7221 81.1616 98.3703 81.1616 97.9717C81.1616 97.5731 81.2261 97.2331 81.3549 96.9165C81.4838 96.5999 81.6771 96.3596 81.9348 96.1896C82.1925 96.0195 82.4796 95.9375 82.7959 95.9375C83.0302 95.9375 83.2352 95.9844 83.4168 96.084C83.5983 96.1837 83.7448 96.3127 83.8619 96.4709V94.554H84.5121V99.9004H83.9029L83.9088 99.9121ZM81.8352 97.9776C81.8352 98.4759 81.9407 98.8452 82.1515 99.0914C82.3624 99.3376 82.6084 99.4607 82.8896 99.4607C83.1707 99.4607 83.4226 99.3435 83.6218 99.109C83.8209 98.8745 83.9205 98.5169 83.9205 98.0362C83.9205 97.5086 83.8209 97.1158 83.6159 96.8696C83.4109 96.6234 83.159 96.5003 82.8603 96.5003C82.5616 96.5003 82.3273 96.6175 82.1281 96.8579C81.929 97.0982 81.8352 97.4734 81.8352 97.9834V97.9776Z" fill="white"/>
<path d="M85.7363 99.9122V96.0372H86.3279V96.6234C86.4802 96.3479 86.6208 96.1661 86.7438 96.0782C86.8727 95.9903 87.0133 95.9492 87.1656 95.9492C87.3881 95.9492 87.6107 96.0196 87.8392 96.1603L87.6107 96.77C87.4526 96.6762 87.2886 96.6293 87.1304 96.6293C86.9898 96.6293 86.861 96.6703 86.7438 96.7582C86.6267 96.8462 86.5505 96.9634 86.4978 97.1158C86.4275 97.3503 86.3865 97.6024 86.3865 97.8838V99.9122H85.7305H85.7363Z" fill="white"/>
<path d="M88.1848 95.3161V94.5598H88.8408V95.3161H88.1848ZM88.1848 99.9121V96.0371H88.8408V99.9121H88.1848Z" fill="white"/>
<path d="M89.8893 99.9121V94.5657H90.5454V99.9121H89.8893Z" fill="white"/>
<path d="M91.6173 99.9121V94.5657H92.2733V99.9121H91.6173Z" fill="white"/>
<path d="M93.2867 97.9717C93.2867 97.2565 93.4858 96.723 93.8841 96.3772C94.218 96.0899 94.6222 95.9492 95.1025 95.9492C95.6355 95.9492 96.069 96.1251 96.4087 96.471C96.7484 96.8227 96.9183 97.3034 96.9183 97.919C96.9183 98.4173 96.8422 98.81 96.6957 99.0973C96.5493 99.3846 96.3267 99.6073 96.0455 99.7656C95.7585 99.9239 95.4481 100 95.1083 100C94.5636 100 94.1301 99.8242 93.7963 99.4784C93.4624 99.1325 93.2925 98.6283 93.2925 97.9776L93.2867 97.9717ZM93.9603 97.9717C93.9603 98.47 94.0657 98.8394 94.2824 99.0856C94.4992 99.3318 94.7686 99.4549 95.0966 99.4549C95.4246 99.4549 95.6941 99.3318 95.9108 99.0856C96.1275 98.8394 96.233 98.4583 96.233 97.9483C96.233 97.4676 96.1217 97.1041 95.905 96.8579C95.6882 96.6117 95.4188 96.4886 95.0966 96.4886C94.7745 96.4886 94.4992 96.6117 94.2824 96.8579C94.0657 97.1041 93.9603 97.4734 93.9603 97.9717Z" fill="white"/>
<path d="M97.4162 98.7573L98.0664 98.6576C98.1015 98.9156 98.207 99.1149 98.371 99.2556C98.535 99.3963 98.7693 99.4608 99.068 99.4608C99.3668 99.4608 99.5952 99.4021 99.7416 99.279C99.8881 99.1559 99.9584 99.0094 99.9584 98.8452C99.9584 98.6987 99.8939 98.5814 99.7651 98.4935C99.6772 98.4349 99.4488 98.3586 99.0973 98.2707C98.617 98.1476 98.2831 98.0421 98.0957 97.9541C97.9082 97.8662 97.7677 97.7431 97.6739 97.5848C97.5802 97.4265 97.5275 97.2565 97.5275 97.0631C97.5275 96.8931 97.5685 96.7289 97.6446 96.5824C97.7208 96.4358 97.8321 96.3127 97.9668 96.213C98.0664 96.1368 98.207 96.0723 98.3827 96.0196C98.5584 95.9668 98.7459 95.9434 98.9509 95.9434C99.2555 95.9434 99.519 95.9844 99.7533 96.0723C99.9818 96.1603 100.152 96.2775 100.263 96.4299C100.374 96.5824 100.45 96.7817 100.491 97.0279L99.8529 97.1158C99.8236 96.9165 99.7416 96.7582 99.601 96.6468C99.4605 96.5355 99.2613 96.4768 99.0094 96.4768C98.7107 96.4768 98.494 96.5237 98.3651 96.6234C98.2362 96.7231 98.1718 96.8403 98.1718 96.9751C98.1718 97.0631 98.2011 97.1393 98.2538 97.2038C98.3065 97.2741 98.3885 97.3327 98.5057 97.3796C98.5701 97.4031 98.7634 97.4617 99.0856 97.5496C99.5483 97.6727 99.8705 97.7724 100.058 97.8545C100.245 97.9366 100.386 98.0479 100.491 98.2004C100.597 98.3528 100.65 98.5404 100.65 98.7631C100.65 98.9859 100.585 99.1911 100.456 99.3846C100.327 99.578 100.146 99.7246 99.9056 99.836C99.6655 99.9415 99.3902 99.9942 99.0914 99.9942C98.5877 99.9942 98.207 99.8887 97.9434 99.6777C97.6798 99.4666 97.5099 99.1559 97.4396 98.7456L97.4162 98.7573Z" fill="white"/>
<path d="M104.363 99.9121H103.754V94.5657H104.41V96.4709C104.685 96.1251 105.043 95.9492 105.47 95.9492C105.71 95.9492 105.933 95.9961 106.15 96.0957C106.361 96.1895 106.536 96.3244 106.677 96.5003C106.812 96.6761 106.923 96.8813 106.999 97.1275C107.075 97.3737 107.116 97.6376 107.116 97.9131C107.116 98.5755 106.952 99.0914 106.624 99.4549C106.296 99.8183 105.904 100 105.441 100C104.978 100 104.627 99.8066 104.363 99.4256V99.9121ZM104.351 97.9424C104.351 98.4055 104.416 98.7455 104.539 98.9507C104.744 99.2907 105.025 99.4607 105.377 99.4607C105.664 99.4607 105.91 99.3376 106.12 99.0856C106.331 98.8335 106.437 98.4641 106.437 97.9717C106.437 97.4793 106.337 97.0924 106.138 96.852C105.939 96.6116 105.693 96.4885 105.412 96.4885C105.131 96.4885 104.879 96.6116 104.668 96.8637C104.457 97.1158 104.351 97.4734 104.351 97.9483V97.9424Z" fill="white"/>
<path d="M107.919 95.3161V94.5598H108.575V95.3161H107.919ZM107.919 99.9121V96.0371H108.575V99.9121H107.919Z" fill="white"/>
<path d="M112.464 98.6635L113.144 98.7456C113.038 99.1442 112.839 99.449 112.552 99.6659C112.265 99.8829 111.896 99.9942 111.445 99.9942C110.877 99.9942 110.432 99.8184 110.098 99.4725C109.764 99.1266 109.6 98.6342 109.6 98.0069C109.6 97.3796 109.77 96.852 110.104 96.4886C110.437 96.131 110.877 95.9492 111.41 95.9492C111.943 95.9492 112.353 96.1251 112.681 96.4768C113.009 96.8286 113.173 97.3269 113.173 97.9659C113.173 98.0069 113.173 98.0655 113.173 98.1417H110.285C110.309 98.5697 110.432 98.8921 110.648 99.1208C110.865 99.3494 111.134 99.4608 111.457 99.4608C111.697 99.4608 111.902 99.3963 112.072 99.2732C112.242 99.1442 112.376 98.9449 112.476 98.6693L112.464 98.6635ZM110.309 97.6024H112.47C112.441 97.2741 112.359 97.0338 112.224 96.8696C112.013 96.6175 111.744 96.4886 111.41 96.4886C111.111 96.4886 110.853 96.5882 110.648 96.7934C110.443 96.9986 110.332 97.2624 110.309 97.6024Z" fill="white"/>
<path d="M114.139 99.9122V96.0372H114.731V96.5882C115.018 96.1603 115.428 95.9492 115.961 95.9492C116.195 95.9492 116.406 95.9903 116.605 96.0723C116.805 96.1544 116.945 96.2658 117.045 96.4006C117.144 96.5355 117.209 96.6996 117.25 96.8872C117.273 97.0103 117.285 97.2214 117.285 97.5262V99.9063H116.629V97.5496C116.629 97.28 116.605 97.0807 116.553 96.9517C116.5 96.8227 116.412 96.7113 116.283 96.6351C116.154 96.5589 116.002 96.5179 115.826 96.5179C115.545 96.5179 115.305 96.6058 115.106 96.7817C114.901 96.9575 114.801 97.2976 114.801 97.79V99.9063H114.145L114.139 99.9122Z" fill="white"/>
<path d="M119.798 99.9121V94.5657H120.454V96.4827C120.758 96.1251 121.145 95.9492 121.614 95.9492C121.901 95.9492 122.152 96.0078 122.363 96.1192C122.574 96.2306 122.726 96.3889 122.82 96.5882C122.914 96.7875 122.955 97.0748 122.955 97.4558V99.9121H122.299V97.4558C122.299 97.1275 122.229 96.8872 122.088 96.7406C121.947 96.5882 121.742 96.5178 121.485 96.5178C121.291 96.5178 121.11 96.5706 120.934 96.6703C120.764 96.7699 120.641 96.9106 120.571 97.0806C120.501 97.2506 120.46 97.491 120.46 97.7958V99.918H119.804L119.798 99.9121Z" fill="white"/>
<path d="M126.774 98.6635L127.453 98.7456C127.348 99.1442 127.149 99.449 126.862 99.6659C126.575 99.8829 126.206 99.9942 125.755 99.9942C125.187 99.9942 124.741 99.8184 124.408 99.4725C124.074 99.1266 123.91 98.6342 123.91 98.0069C123.91 97.3796 124.08 96.852 124.413 96.4886C124.747 96.131 125.187 95.9492 125.72 95.9492C126.253 95.9492 126.663 96.1251 126.991 96.4768C127.319 96.8286 127.483 97.3269 127.483 97.9659C127.483 98.0069 127.483 98.0655 127.483 98.1417H124.595C124.618 98.5697 124.741 98.8921 124.958 99.1208C125.175 99.3494 125.444 99.4608 125.767 99.4608C126.007 99.4608 126.212 99.3963 126.382 99.2732C126.551 99.1442 126.686 98.9449 126.786 98.6693L126.774 98.6635ZM124.618 97.6024H126.78C126.751 97.2741 126.669 97.0338 126.534 96.8696C126.323 96.6175 126.054 96.4886 125.72 96.4886C125.421 96.4886 125.163 96.5882 124.958 96.7934C124.753 96.9986 124.642 97.2624 124.618 97.6024Z" fill="white"/>
<path d="M130.804 98.4935L131.448 98.5755C131.378 99.0211 131.196 99.367 130.909 99.619C130.617 99.8711 130.265 99.9942 129.837 99.9942C129.31 99.9942 128.883 99.8184 128.561 99.4725C128.238 99.1266 128.08 98.6283 128.08 97.9835C128.08 97.5672 128.151 97.1979 128.285 96.8872C128.42 96.5765 128.637 96.3361 128.918 96.1837C129.199 96.0313 129.509 95.9492 129.843 95.9492C130.265 95.9492 130.605 96.0547 130.874 96.2658C131.144 96.4768 131.314 96.7817 131.39 97.1744L130.751 97.2741C130.693 97.0162 130.581 96.8168 130.429 96.6879C130.277 96.5589 130.089 96.4886 129.867 96.4886C129.539 96.4886 129.269 96.6058 129.058 96.8462C128.853 97.0807 128.748 97.4558 128.748 97.9717C128.748 98.4876 128.848 98.8687 129.047 99.109C129.246 99.3435 129.504 99.4608 129.826 99.4608C130.083 99.4608 130.3 99.3846 130.47 99.2263C130.64 99.068 130.751 98.8276 130.798 98.4993L130.804 98.4935Z" fill="white"/>
<path d="M132.274 99.9121V94.5657H132.93V96.4827C133.235 96.1251 133.621 95.9492 134.09 95.9492C134.377 95.9492 134.629 96.0078 134.84 96.1192C135.051 96.2306 135.203 96.3889 135.297 96.5882C135.39 96.7875 135.431 97.0748 135.431 97.4558V99.9121H134.775V97.4558C134.775 97.1275 134.705 96.8872 134.565 96.7406C134.424 96.5882 134.219 96.5178 133.961 96.5178C133.768 96.5178 133.586 96.5706 133.411 96.6703C133.241 96.7699 133.118 96.9106 133.047 97.0806C132.977 97.2506 132.936 97.491 132.936 97.7958V99.918H132.28L132.274 99.9121Z" fill="white"/>
<path d="M136.357 97.9717C136.357 97.2565 136.556 96.723 136.954 96.3772C137.288 96.0899 137.692 95.9492 138.173 95.9492C138.706 95.9492 139.139 96.1251 139.479 96.471C139.819 96.8227 139.989 97.3034 139.989 97.919C139.989 98.4173 139.912 98.81 139.766 99.0973C139.62 99.3846 139.397 99.6073 139.116 99.7656C138.829 99.9239 138.518 100 138.179 100C137.634 100 137.2 99.8242 136.867 99.4784C136.533 99.1325 136.363 98.6283 136.363 97.9776L136.357 97.9717ZM137.031 97.9717C137.031 98.47 137.136 98.8394 137.353 99.0856C137.569 99.3318 137.839 99.4549 138.167 99.4549C138.495 99.4549 138.764 99.3318 138.981 99.0856C139.198 98.8394 139.303 98.4583 139.303 97.9483C139.303 97.4676 139.192 97.1041 138.975 96.8579C138.758 96.6117 138.489 96.4886 138.167 96.4886C137.845 96.4886 137.569 96.6117 137.353 96.8579C137.136 97.1041 137.031 97.4734 137.031 97.9717Z" fill="white"/>
<path d="M140.492 98.7573L141.142 98.6576C141.178 98.9156 141.283 99.1149 141.447 99.2556C141.611 99.3963 141.845 99.4608 142.144 99.4608C142.443 99.4608 142.671 99.4021 142.818 99.279C142.964 99.1559 143.034 99.0094 143.034 98.8452C143.034 98.6987 142.97 98.5814 142.841 98.4935C142.753 98.4349 142.525 98.3586 142.173 98.2707C141.693 98.1476 141.359 98.0421 141.172 97.9541C140.984 97.8662 140.844 97.7431 140.75 97.5848C140.656 97.4265 140.604 97.2565 140.604 97.0631C140.604 96.8931 140.645 96.7289 140.721 96.5824C140.797 96.4358 140.908 96.3127 141.043 96.213C141.142 96.1368 141.283 96.0723 141.459 96.0196C141.635 95.9668 141.822 95.9434 142.027 95.9434C142.332 95.9434 142.595 95.9844 142.829 96.0723C143.058 96.1603 143.228 96.2775 143.339 96.4299C143.45 96.5824 143.526 96.7817 143.568 97.0279L142.929 97.1158C142.9 96.9165 142.818 96.7582 142.677 96.6468C142.537 96.5355 142.337 96.4768 142.086 96.4768C141.787 96.4768 141.57 96.5237 141.441 96.6234C141.312 96.7231 141.248 96.8403 141.248 96.9751C141.248 97.0631 141.277 97.1393 141.33 97.2038C141.383 97.2741 141.465 97.3327 141.582 97.3796C141.646 97.4031 141.84 97.4617 142.162 97.5496C142.624 97.6727 142.947 97.7724 143.134 97.8545C143.321 97.9366 143.462 98.0479 143.568 98.2004C143.673 98.3528 143.726 98.5404 143.726 98.7631C143.726 98.9859 143.661 99.1911 143.532 99.3846C143.403 99.578 143.222 99.7246 142.982 99.836C142.742 99.9415 142.466 99.9942 142.168 99.9942C141.664 99.9942 141.283 99.8887 141.019 99.6777C140.756 99.4666 140.586 99.1559 140.516 98.7456L140.492 98.7573Z" fill="white"/>
<path fill-rule="evenodd" clip-rule="evenodd" d="M145.688 79.4057H145.26L145.336 79.4467L145.465 79.5874L145.506 79.6284V79.8043L145.465 79.8453L145.424 79.9333L145.383 79.986L145.26 80.0271H145.172H145.641L145.717 79.986L145.758 79.8453V79.6284L145.717 79.5346L145.682 79.4057H145.688ZM145.307 80.2498H144.88H144.921L144.997 80.2909H145.038L145.079 80.3319L145.12 80.3847L145.208 80.5136L145.295 80.6016L145.588 81.0882H145.881L145.588 80.6016L145.5 80.4726L145.459 80.4316L145.331 80.2909H145.295V80.2498H145.307ZM145.26 79.2298H144.282V81.0882H144.54V80.244H145.301H145.26L145.424 80.2029L145.553 80.1619L145.641 80.0329H144.54V79.4057H145.688L145.647 79.3646L145.559 79.2767L145.383 79.2357H145.26V79.2298ZM146.192 78.5205H145.512L145.94 78.6963L146.485 79.2767L146.66 79.7222V80.6074L146.485 81.053L145.94 81.6334L145.512 81.8092H146.192L146.789 81.1937L147 80.7012V79.6402L146.789 79.1477L146.192 78.5322V78.5205ZM145.647 78.1629H144.581L144.118 78.3915L143.433 79.136L143.222 79.6284V80.6895L143.433 81.182L144.118 81.9265L144.581 82.1551H145.647L146.11 81.9265L146.198 81.7975H144.669L144.288 81.6216L143.696 81.0413L143.521 80.5957V79.7105L143.696 79.265L144.288 78.6846L144.669 78.5087H146.198L146.11 78.3798L145.647 78.1511V78.1629Z" fill="#221E20"/>
</g>
<defs>
<clipPath id="clip0_2004_158">
<rect width="147" height="100" fill="white"/>
</clipPath>
</defs>
</svg>
