<?xml version="1.0" encoding="UTF-8" standalone="no"?>
<!DOCTYPE svg PUBLIC "-//W3C//DTD SVG 20010904//EN"
              "http://www.w3.org/TR/2001/REC-SVG-20010904/DTD/svg10.dtd">

<svg xmlns="http://www.w3.org/2000/svg"
     width="3in" height="1.83333in"
     viewBox="0 0 900 550">
  <path id="letrasAzules"
        fill="#3e4095" stroke="#3e4095" stroke-width="1"
        d="M 410.00,140.00
           C 412.30,140.01 418.00,140.00 418.00,140.00
             418.00,140.00 420.27,155.27 413.64,160.00
             411.35,160.85 406.20,160.90 404.02,160.21
             394.89,156.23 396.99,141.06 397.00,133.00
             397.01,128.54 396.99,122.89 399.72,119.15
             403.62,113.72 413.02,113.45 416.72,119.15
             419.23,123.06 419.00,128.57 419.00,133.00
             419.00,133.00 410.00,133.00 410.00,133.00
             410.00,133.00 410.09,123.73 410.09,123.73
             409.00,122.18 406.91,122.27 406.36,124.36
             406.36,124.36 405.83,150.05 406.55,151.73
             407.41,153.77 410.00,152.91 409.91,151.09
             409.91,151.09 410.00,140.00 410.00,140.00 Z
           M 502.09,115.73
           C 502.09,115.73 502.73,121.55 502.73,121.55
             502.73,121.55 504.64,121.45 504.64,121.45
             504.64,121.45 504.73,128.09 504.73,128.09
             504.73,128.09 502.73,128.00 502.73,128.00
             502.73,128.00 502.27,151.09 502.64,153.18
             502.64,153.18 504.73,153.27 504.73,153.27
             504.73,153.27 504.80,156.31 504.82,158.64
             502.64,161.45 498.47,161.89 496.17,158.57
             494.46,156.09 495.00,147.30 495.00,144.00
             495.00,144.00 494.73,127.73 494.73,127.73
             494.73,127.73 492.00,127.73 492.00,127.73
             492.00,127.73 492.00,120.91 492.00,120.91
             492.00,120.91 494.55,120.55 494.55,120.55
             494.55,120.55 494.91,115.73 494.91,115.73
             494.91,115.73 502.09,115.73 502.09,115.73 Z
           M 577.91,128.73
           C 577.91,128.73 577.82,121.91 577.82,121.91
             577.82,121.91 580.27,121.91 580.27,121.91
             580.27,121.91 580.36,116.18 580.36,116.18
             580.36,116.18 587.55,116.18 587.55,116.18
             587.55,116.18 587.73,121.64 587.73,121.64
             587.73,121.64 589.91,121.73 589.91,121.73
             589.91,121.73 590.00,128.73 590.00,128.73
             590.00,128.73 587.91,128.82 587.91,128.82
             587.91,128.82 588.18,152.73 588.18,152.73
             588.18,152.73 589.91,153.00 589.91,153.00
             589.91,153.00 589.73,159.55 589.73,159.55
             587.94,161.01 581.18,161.45 580.91,158.27
             580.45,152.91 580.27,128.73 580.27,128.73
             580.27,128.73 577.91,128.73 577.91,128.73 Z
           M 428.04,121.74
           C 438.24,119.24 441.95,123.05 442.00,133.00
             442.00,133.00 442.00,148.00 442.00,148.00
             441.97,152.79 442.00,157.71 436.90,159.99
             431.88,162.24 425.80,160.22 423.74,154.99
             422.93,152.95 423.01,150.18 423.00,148.00
             422.98,143.35 422.27,128.49 424.17,125.11
             425.36,123.01 426.14,122.84 428.04,121.74 Z
           M 447.00,121.00
           C 448.15,121.01 453.82,121.09 453.82,121.09
             453.82,121.09 454.91,123.73 454.91,123.73
             456.09,119.73 459.73,120.00 459.73,120.00
             459.73,120.00 464.73,119.73 466.09,126.55
             466.09,126.55 466.09,160.45 466.09,160.45
             466.09,160.45 458.91,160.45 458.91,160.45
             458.91,160.45 458.73,130.45 458.27,127.82
             457.82,126.64 456.36,126.73 455.36,128.00
             454.82,129.09 455.09,130.36 455.09,130.36
             455.09,130.36 454.64,160.36 454.64,160.36
             454.64,160.36 446.82,160.45 446.82,160.45
             446.82,160.45 447.00,121.00 447.00,121.00 Z
           M 481.27,153.91
           C 483.17,153.44 482.71,148.35 480.55,145.36
             476.80,140.20 469.40,135.29 470.80,128.00
             472.63,118.44 483.92,120.56 486.72,122.74
             489.93,125.24 489.28,129.42 489.36,133.09
             489.36,133.09 482.00,133.00 482.00,133.00
             482.00,133.00 481.82,127.82 481.82,127.82
             481.82,127.82 479.91,126.45 478.91,127.91
             477.73,128.91 478.82,131.36 478.82,131.36
             483.97,140.52 490.69,138.17 489.96,151.00
             489.33,162.05 478.24,162.82 473.43,158.35
             469.90,155.07 470.01,148.46 470.00,144.00
             470.00,144.00 478.00,144.00 478.00,144.00
             478.06,148.68 477.09,154.09 481.27,153.91 Z
           M 509.00,121.00
           C 510.25,121.01 516.27,121.00 516.27,121.00
             516.27,121.00 516.45,123.91 516.45,123.91
             519.09,118.91 522.93,121.01 524.27,121.36
             529.18,123.55 527.45,139.82 527.45,139.82
             527.45,139.82 520.27,140.00 520.27,140.00
             520.27,140.00 520.09,128.18 520.09,128.18
             519.95,127.03 516.88,126.67 517.18,129.18
             517.18,129.18 516.36,160.00 516.36,160.00
             516.36,160.00 509.00,160.00 509.00,160.00
             509.00,160.00 509.00,121.00 509.00,121.00 Z
           M 551.00,160.45
           C 550.02,160.45 544.27,160.45 544.27,160.45
             544.27,160.45 544.00,158.09 544.00,158.09
             543.11,157.92 542.72,158.03 542.00,158.27
             539.64,162.18 534.71,160.68 533.18,159.00
             530.18,158.55 531.91,120.82 531.91,120.82
             531.91,120.82 537.13,120.75 539.27,120.73
             539.27,120.73 540.00,153.00 540.00,153.00
             540.00,155.08 542.45,154.27 542.00,153.00
             542.00,153.00 543.00,121.00 543.00,121.00
             543.00,121.00 551.00,121.00 551.00,121.00
             551.00,121.00 551.00,160.45 551.00,160.45 Z
           M 567.45,152.82
           C 567.45,152.82 567.45,144.18 567.45,144.18
             567.45,144.18 575.00,144.09 575.00,144.09
             575.00,144.09 575.55,153.27 573.91,156.73
             571.64,162.00 561.49,162.20 557.73,157.61
             554.43,153.57 554.94,142.21 555.00,137.00
             555.05,133.26 555.58,126.37 558.01,123.43
             561.17,119.59 570.30,120.31 573.15,124.23
             575.45,127.40 575.00,133.19 575.00,137.00
             575.00,137.00 567.09,137.00 567.09,137.00
             567.06,134.23 567.20,129.87 566.55,128.36
             566.13,127.40 563.91,127.18 563.91,128.73
             563.65,134.58 563.73,153.55 563.73,153.55
             563.55,154.73 567.00,155.64 567.45,152.82 Z
           M 599.05,121.74
           C 614.78,117.86 614.13,131.95 614.00,143.00
             613.96,146.04 613.29,154.35 611.83,156.79
             609.89,160.03 605.57,161.24 602.00,160.77
             598.82,160.36 596.35,158.88 595.01,155.90
             594.04,153.74 594.03,151.32 594.00,149.00
             593.94,144.07 593.30,128.78 595.31,125.11
             596.49,122.96 597.14,122.88 599.05,121.74 Z
           M 618.00,121.00
           C 618.99,121.01 624.91,121.00 624.91,121.00
             625.65,121.23 624.87,123.53 625.64,123.55
             626.32,123.56 627.60,121.56 628.27,121.45
             631.32,120.98 633.44,121.52 634.27,122.00
             637.76,124.02 636.73,139.09 636.73,139.09
             636.73,139.09 631.27,139.00 630.09,139.09
             630.09,139.09 629.91,128.45 629.91,128.45
             630.18,126.64 626.06,125.87 626.09,128.36
             626.09,128.36 626.00,160.00 626.00,160.00
             626.00,160.00 618.00,160.00 618.00,160.00
             618.00,160.00 618.00,121.00 618.00,121.00 Z
           M 641.00,133.00
           C 641.01,130.03 640.72,126.66 642.60,124.15
             646.05,119.53 654.99,120.06 657.83,125.11
             659.11,127.39 658.99,130.45 659.00,133.00
             659.00,133.00 659.00,160.11 659.00,160.11
             659.00,160.11 652.38,160.00 652.38,160.00
             652.38,160.00 651.50,157.62 651.50,157.62
             650.12,161.62 645.04,160.11 645.04,160.11
             638.98,158.11 638.61,144.80 641.17,140.09
             643.24,136.31 649.72,134.57 651.45,132.66
             652.14,131.90 652.75,127.75 650.00,127.75
             649.41,127.36 647.75,127.88 648.12,128.88
             648.12,128.88 648.00,133.00 648.00,133.00
             648.00,133.00 641.00,133.00 641.00,133.00 Z
           M 432.55,153.91
           C 433.45,153.45 434.00,154.18 434.09,152.36
             434.09,152.36 434.00,128.00 434.00,128.00
             434.00,128.00 434.18,126.55 432.36,126.82
             430.64,126.64 431.00,128.00 431.00,128.00
             431.00,134.36 431.09,152.45 431.09,152.45
             431.00,154.00 431.82,153.73 432.55,153.91 Z
           M 604.91,128.73
           C 604.91,128.73 605.09,127.09 603.27,127.18
             602.00,127.09 602.09,128.73 602.09,128.73
             602.09,128.73 602.00,153.00 602.00,153.00
             603.17,154.81 605.28,153.43 605.00,153.00
             605.00,153.00 604.91,128.73 604.91,128.73 Z
           M 651.00,141.00
           C 647.08,144.97 648.00,147.71 648.00,153.00
             648.00,153.00 651.00,153.00 651.00,153.00
             651.00,153.00 651.00,141.00 651.00,141.00 Z
           M 682.00,207.44
           C 696.30,205.65 708.93,210.95 712.18,226.00
             712.18,226.00 713.99,243.00 713.99,243.00
             714.03,244.95 714.21,248.85 712.98,250.40
             711.63,252.10 708.95,251.96 707.00,252.00
             707.00,252.00 698.00,252.00 698.00,252.00
             696.38,251.97 693.94,252.04 692.60,250.98
             689.06,248.18 692.73,234.88 689.83,230.23
             688.99,228.90 687.68,227.84 686.01,228.03
             681.60,228.52 682.01,234.86 682.00,238.00
             682.00,238.00 682.00,289.00 682.00,289.00
             682.06,292.12 682.92,298.54 687.78,296.60
             693.95,294.14 688.87,277.76 692.17,273.57
             693.53,271.85 696.04,272.04 698.00,272.00
             700.76,271.96 710.41,271.50 712.26,272.99
             714.34,274.67 714.04,279.54 713.99,282.00
             713.99,282.00 713.17,290.00 713.17,290.00
             711.97,302.00 710.65,312.33 697.00,316.07
             692.81,317.22 688.31,317.05 684.00,317.00
             677.58,316.92 670.86,315.65 666.22,310.81
             662.41,306.84 660.81,300.29 659.92,295.00
             658.28,285.25 659.00,266.68 659.00,256.00
             659.00,256.00 659.00,239.00 659.00,239.00
             659.08,232.85 660.73,222.20 663.99,217.00
             668.29,210.16 674.62,208.82 682.00,207.44 Z
           M 747.00,207.44
           C 756.20,206.29 767.85,208.89 773.30,217.00
             778.89,225.32 778.00,243.10 778.00,253.00
             778.00,253.00 777.08,296.00 777.08,296.00
             775.74,303.98 773.82,310.54 766.00,314.55
             761.16,317.03 754.33,317.06 749.00,317.00
             745.22,316.95 740.49,316.51 737.00,315.01
             729.23,311.68 726.29,304.78 724.92,297.00
             723.26,287.55 724.00,265.72 724.00,255.00
             724.00,255.00 724.00,238.00 724.00,238.00
             724.03,231.56 725.14,222.56 728.61,217.04
             733.04,210.00 739.47,208.83 747.00,207.44 Z
           M 811.00,214.00
           C 819.66,206.27 832.84,203.57 840.00,215.02
             843.22,220.16 843.99,229.01 844.00,235.00
             844.00,235.00 844.00,316.00 844.00,316.00
             844.00,316.00 829.00,316.00 829.00,316.00
             827.05,315.96 824.37,316.10 823.02,314.40
             821.85,312.92 822.01,309.82 822.00,308.00
             822.00,308.00 822.00,239.00 822.00,239.00
             821.99,235.71 822.43,228.76 817.91,228.05
             816.56,227.84 815.49,228.40 814.58,229.36
             812.13,231.95 812.02,238.57 812.00,242.00
             812.00,242.00 812.00,282.00 812.00,282.00
             812.00,282.00 812.00,316.00 812.00,316.00
             812.00,316.00 797.00,316.00 797.00,316.00
             797.00,316.00 791.02,314.40 791.02,314.40
             791.02,314.40 790.00,307.00 790.00,307.00
             790.00,307.00 790.00,209.00 790.00,209.00
             790.00,209.00 811.00,209.00 811.00,209.00
             811.00,209.00 811.00,214.00 811.00,214.00 Z
           M 750.10,227.54
           C 745.67,229.50 746.06,232.59 746.00,237.00
             746.00,237.00 746.00,286.00 746.00,286.00
             746.00,288.61 745.78,292.51 747.17,294.77
             749.47,298.51 754.09,298.17 755.86,292.98
             756.08,291.21 756.00,287.92 755.86,286.00
             755.86,286.00 755.86,237.00 755.86,237.00
             755.94,232.01 756.17,227.72 750.10,227.54 Z
           M 329.00,339.00
           C 337.27,339.00 348.10,338.75 356.00,341.00
             356.00,341.00 356.00,343.00 356.00,343.00
             348.08,346.67 344.02,343.74 340.31,346.17
             337.92,347.74 337.44,351.37 337.17,354.00
             336.41,361.47 337.90,367.17 336.00,375.00
             336.00,375.00 355.00,377.00 355.00,377.00
             349.99,384.34 342.28,378.72 337.60,383.58
             334.60,386.70 336.10,392.81 340.06,394.40
             342.47,395.38 354.60,395.00 358.00,395.00
             354.62,401.02 345.19,400.44 339.00,401.15
             336.31,401.46 332.80,402.37 330.60,400.26
             328.66,398.40 329.00,394.50 329.00,392.00
             329.00,392.00 329.00,339.00 329.00,339.00 Z
           M 768.00,341.00
           C 777.01,341.75 772.94,347.68 770.86,355.00
             770.86,355.00 764.37,378.00 764.37,378.00
             764.37,378.00 759.00,400.00 759.00,400.00
             755.65,399.35 752.42,399.18 750.65,395.86
             750.65,395.86 743.58,367.00 743.58,367.00
             741.52,357.85 738.22,351.83 738.00,342.00
             738.00,342.00 747.00,343.00 747.00,343.00
             747.00,343.00 749.58,360.00 749.58,360.00
             749.58,360.00 757.00,387.00 757.00,387.00
             757.00,387.00 765.15,352.00 765.15,352.00
             765.15,352.00 768.00,341.00 768.00,341.00 Z
           M 809.00,364.91
           C 809.00,347.79 807.06,343.38 818.00,346.00
             816.22,359.51 813.73,391.31 816.00,404.00
             816.00,404.00 809.00,404.00 809.00,404.00
             809.00,404.00 809.00,399.00 809.00,399.00
             804.71,399.00 797.81,399.85 794.74,396.43
             789.99,391.17 792.73,378.07 794.74,372.00
             795.59,369.46 796.88,366.34 799.21,364.91
             802.14,362.92 805.95,364.08 809.00,364.91 Z
           M 680.60,348.11
           C 683.42,347.37 686.85,347.83 687.67,351.22
             687.67,351.22 687.00,364.00 687.00,364.00
             687.00,364.00 687.00,391.00 687.00,391.00
             687.00,392.69 687.13,396.23 686.40,397.59
             684.87,400.75 680.38,399.54 679.06,397.59
             678.22,396.05 679.00,388.29 679.06,386.00
             679.06,386.00 679.91,369.00 679.91,369.00
             680.25,363.03 676.89,353.00 680.60,348.11 Z
           M 475.31,350.08
           C 482.13,348.57 481.48,356.22 478.57,357.92
             475.27,359.85 470.56,355.03 475.31,350.08 Z
           M 782.31,350.04
           C 789.55,347.83 788.64,356.08 785.70,357.96
             781.74,360.50 777.64,355.03 782.31,350.04 Z
           M 564.00,418.00
           C 556.92,416.01 557.02,415.92 557.00,408.00
             557.00,408.00 557.00,393.00 557.00,393.00
             557.00,393.00 558.03,369.00 558.03,369.00
             557.97,366.36 556.90,360.22 558.03,358.31
             559.63,355.74 564.22,355.46 565.31,358.31
             566.12,360.45 564.80,363.06 564.00,365.00
             568.84,365.05 572.97,365.09 576.35,369.21
             582.58,376.81 581.93,402.08 564.00,397.00
             564.00,397.00 564.00,418.00 564.00,418.00 Z
           M 389.00,357.00
           C 397.69,357.11 396.59,358.31 396.00,366.00
             408.65,364.19 410.11,372.96 410.00,383.00
             409.94,387.51 409.51,392.36 405.78,395.49
             402.37,398.35 398.99,397.49 395.00,397.00
             395.00,397.00 396.00,417.00 396.00,417.00
             388.51,416.74 389.01,414.92 389.00,408.00
             389.00,408.00 389.00,357.00 389.00,357.00 Z
           M 430.93,381.00
           C 430.93,381.00 430.93,377.00 430.93,377.00
             430.93,377.00 430.93,372.00 430.93,372.00
             430.63,371.00 430.41,369.99 429.99,369.06
             428.62,366.02 426.02,364.87 424.02,368.16
             422.74,370.27 423.16,379.21 418.22,376.83
             414.70,375.07 416.59,367.66 418.22,365.06
             421.33,359.68 429.25,360.21 433.61,363.82
             438.81,368.13 437.01,386.22 437.00,393.00
             437.00,394.96 437.23,398.85 435.98,400.40
             434.38,402.37 432.01,401.51 430.00,401.00
             430.00,401.00 431.00,397.00 431.00,397.00
             427.42,397.00 422.22,397.34 419.05,395.69
             412.95,392.52 413.80,386.25 419.05,382.74
             422.38,380.52 427.14,381.00 430.93,381.00 Z
           M 466.00,391.00
           C 461.39,400.20 449.41,399.66 445.44,392.89
             441.89,386.85 443.27,379.50 444.27,373.00
             444.97,368.53 445.64,362.74 451.02,361.74
             457.15,360.60 463.22,364.86 463.89,371.00
             464.13,373.20 464.41,378.40 461.74,379.26
             457.27,380.70 457.50,368.77 457.00,366.00
             455.04,367.00 454.22,367.19 453.04,369.14
             449.55,373.81 447.38,389.71 453.04,393.27
             457.58,395.93 458.64,390.03 466.00,391.00 Z
           M 595.00,364.00
           C 589.99,372.69 591.53,373.63 590.42,375.67
             589.73,376.93 588.64,377.55 587.13,376.83
             583.62,374.94 585.26,367.74 587.13,365.06
             590.43,359.80 597.33,360.12 601.89,363.65
             603.44,364.85 604.54,366.18 605.26,368.02
             606.52,371.22 606.01,388.40 606.00,393.00
             606.00,394.96 606.23,398.85 604.98,400.40
             603.38,402.37 601.01,401.51 599.00,401.00
             599.00,401.00 600.00,397.00 600.00,397.00
             595.55,397.00 588.85,397.44 585.31,394.30
             580.88,390.36 584.81,384.34 589.02,382.17
             591.97,380.65 596.67,381.00 600.00,381.00
             600.00,372.64 600.76,370.70 595.00,364.00 Z
           M 647.89,381.00
           C 647.89,381.00 647.89,377.00 647.89,377.00
             647.89,377.00 647.89,372.00 647.89,372.00
             647.89,372.00 646.85,369.06 646.85,369.06
             645.52,366.00 643.04,364.86 641.02,368.16
             639.77,370.20 639.89,379.15 635.49,376.83
             631.52,374.95 633.41,367.06 635.49,364.06
             639.26,359.60 646.53,360.59 650.61,364.06
             655.84,368.30 654.01,386.19 654.00,393.00
             654.00,394.96 654.23,398.85 652.98,400.40
             651.38,402.37 649.01,401.51 647.00,401.00
             647.00,401.00 648.00,397.00 648.00,397.00
             644.42,397.00 639.22,397.34 636.05,395.69
             629.95,392.52 630.80,386.25 636.05,382.74
             639.38,380.52 644.14,381.00 647.89,381.00 Z
           M 708.94,381.00
           C 708.94,381.00 708.94,377.00 708.94,377.00
             708.94,377.00 708.94,372.00 708.94,372.00
             708.68,371.04 708.49,369.96 708.11,369.06
             708.11,369.06 707.15,367.37 707.15,367.37
             701.54,362.10 701.22,374.90 699.98,376.38
             698.44,378.24 695.77,377.39 694.80,374.85
             694.29,373.40 694.55,371.50 694.80,370.00
             696.79,356.52 710.04,360.82 713.26,365.21
             715.15,367.79 714.98,370.97 715.00,374.00
             715.00,374.00 715.00,402.00 715.00,402.00
             715.00,402.00 708.00,401.00 708.00,401.00
             708.00,401.00 709.00,397.00 709.00,397.00
             705.49,397.00 700.15,397.34 697.08,395.69
             691.51,392.73 692.42,386.00 697.08,382.74
             700.30,380.52 705.24,381.00 708.94,381.00 Z
           M 836.92,381.00
           C 836.92,381.00 836.92,375.00 836.92,375.00
             836.92,375.00 836.92,371.00 836.92,371.00
             836.59,370.02 836.36,369.03 835.83,368.16
             830.82,360.02 828.46,375.80 827.98,376.56
             827.09,377.40 825.67,377.55 824.55,376.56
             821.20,374.42 823.74,364.84 826.42,362.44
             829.19,360.27 833.91,361.01 837.00,362.44
             845.73,365.88 843.59,373.64 842.97,381.00
             842.97,381.00 842.97,391.00 842.97,391.00
             843.03,393.05 843.64,398.14 842.97,399.69
             841.62,401.89 839.14,401.82 837.00,402.00
             837.00,402.00 837.00,397.00 837.00,397.00
             833.49,397.00 828.15,397.34 825.08,395.69
             819.51,392.73 820.39,386.17 825.08,382.89
             828.53,380.51 833.02,381.00 836.92,381.00 Z
           M 376.00,393.97
           C 369.88,386.41 363.35,389.39 363.02,378.00
             362.90,373.96 363.16,366.55 366.51,363.75
             369.17,361.53 381.17,361.28 381.94,371.00
             382.12,373.19 382.25,378.37 379.00,378.37
             378.19,378.37 377.52,378.00 377.02,377.38
             375.34,375.33 376.69,370.42 374.44,368.91
             371.52,366.96 368.70,373.79 369.26,378.00
             370.42,386.68 385.99,387.78 380.97,395.58
             378.55,399.36 369.92,399.41 366.02,398.52
             364.56,398.19 360.59,396.84 362.17,394.58
             363.04,393.34 364.76,393.69 366.00,393.97
             371.61,395.01 369.77,395.83 376.00,393.97 Z
           M 492.21,362.83
           C 508.60,360.39 508.13,374.58 508.00,386.00
             507.94,390.80 507.15,398.10 501.90,400.07
             496.39,402.14 488.27,398.50 486.01,393.00
             483.10,385.93 485.52,367.07 492.21,362.83 Z
           M 527.00,395.00
           C 524.14,386.30 514.69,390.32 514.04,378.00
             513.85,374.26 514.33,368.24 516.72,365.23
             519.85,361.31 529.22,361.95 531.83,366.23
             533.05,368.23 533.35,373.62 532.69,375.85
             531.86,378.62 529.42,378.96 527.99,377.24
             526.58,375.56 527.00,369.30 527.00,367.00
             524.65,367.76 523.74,367.91 522.28,370.15
             518.87,375.33 519.76,381.55 525.04,384.93
             528.28,387.00 534.80,388.55 533.16,393.90
             531.23,400.16 516.85,400.19 514.02,396.44
             513.16,395.30 513.22,394.28 513.00,393.00
             513.00,393.00 527.00,395.00 527.00,395.00 Z
           M 613.81,363.00
           C 613.81,363.00 622.00,364.00 622.00,364.00
             622.00,364.00 621.00,369.00 621.00,369.00
             626.11,370.52 627.20,371.48 630.00,376.00
             626.78,377.49 626.16,378.08 624.00,375.00
             624.00,375.00 620.60,378.14 620.60,378.14
             620.60,378.14 620.00,400.00 620.00,400.00
             617.64,399.92 614.83,400.19 613.81,397.69
             612.27,394.98 613.55,388.98 613.81,386.00
             613.81,386.00 613.81,363.00 613.81,363.00 Z
           M 471.98,364.00
           C 471.98,364.00 480.00,364.00 480.00,364.00
             480.00,364.00 478.04,383.00 478.04,383.00
             478.04,383.00 478.04,399.00 478.04,399.00
             478.04,399.00 471.98,397.40 471.98,397.40
             471.98,397.40 471.98,388.00 471.98,388.00
             471.98,388.00 471.98,364.00 471.98,364.00 Z
           M 785.00,399.00
           C 785.00,399.00 778.93,397.40 778.93,397.40
             778.93,397.40 778.93,390.00 778.93,390.00
             778.93,390.00 780.05,374.00 780.05,374.00
             780.05,374.00 780.05,365.60 780.05,365.60
             780.05,365.60 787.00,364.00 787.00,364.00
             787.00,364.00 786.09,374.00 786.09,374.00
             786.09,374.00 785.00,399.00 785.00,399.00 Z
           M 498.00,368.17
           C 491.23,369.45 490.97,383.46 491.73,389.00
             492.07,391.41 492.33,395.47 495.21,396.26
             498.85,397.24 500.66,392.70 501.07,390.00
             502.20,386.41 502.70,373.22 501.07,370.24
             499.76,368.54 499.48,368.87 498.00,368.17 Z
           M 399.89,369.17
           C 393.74,370.42 394.91,382.05 395.00,387.00
             395.04,388.94 394.86,392.54 397.30,393.18
             400.38,393.98 402.33,390.35 403.06,387.98
             404.65,382.83 405.28,372.01 399.89,369.17 Z
           M 564.06,393.00
           C 572.93,392.27 572.08,386.28 572.00,379.00
             571.97,376.59 572.00,371.50 569.53,370.17
             566.06,368.29 564.46,374.81 564.06,377.00
             564.06,377.00 564.06,383.00 564.06,383.00
             564.06,383.00 564.06,393.00 564.06,393.00 Z
           M 804.94,369.73
           C 798.92,373.04 797.72,382.61 798.05,389.00
             798.28,393.54 800.71,397.48 805.86,395.26
             807.89,394.38 808.51,393.04 808.85,390.96
             809.34,388.03 809.42,372.49 807.83,370.59
             806.59,369.13 805.29,369.75 804.94,369.73 Z
           M 421.00,392.89
           C 421.00,392.89 425.00,392.89 425.00,392.89
             426.05,392.98 427.87,392.98 428.85,392.89
             436.52,390.42 427.64,379.99 422.17,388.39
             421.20,389.89 421.20,391.32 421.00,392.89 Z
           M 600.00,385.00
           C 593.87,385.31 591.17,385.83 589.00,392.00
             589.00,392.00 600.00,393.00 600.00,393.00
             600.00,393.00 600.00,385.00 600.00,385.00 Z
           M 648.00,385.00
           C 641.41,385.33 638.82,385.96 638.00,393.00
             638.00,393.00 648.00,393.00 648.00,393.00
             648.00,393.00 648.00,385.00 648.00,385.00 Z
           M 709.00,385.00
           C 706.44,385.24 697.70,387.01 700.17,391.41
             701.32,393.46 706.91,393.00 709.00,393.00
             709.00,393.00 709.00,385.00 709.00,385.00 Z
           M 838.00,385.00
           C 831.51,385.17 828.15,385.95 827.00,393.00
             827.00,393.00 838.00,393.00 838.00,393.00
             838.00,393.00 838.00,385.00 838.00,385.00 Z
           M 578.91,138.64M 536.82,138.18" />
  <path id="tierra"
        fill="#a8cf45" stroke="#a8cf45" stroke-width="1"
        d="M 289.00,363.50
           C 313.00,343.00 383.41,282.34 383.50,285.50
             373.00,258.00 228.00,293.00 189.00,338.00
             181.00,350.00 126.00,404.00 31.00,452.00
             98.71,491.61 249.00,421.00 289.00,363.50 Z" />
  <defs>
    <!-- Gradiente radial desde la esquina superior izquierda -->
    <radialGradient id="gradEdificio"
      cx="0%" cy="0%" r="150%"
      fx="0%" fy="0%">
      <stop offset="0%" stop-color="#b1e2f9" />
      <stop offset="100%" stop-color="#3e4095" />
    </radialGradient>
  </defs>
  <path id="Edificio"
        fill="url(#gradEdificio)"
        stroke="transparent"
        stroke-width="1"
        d="M 221.00,85.50
           C 221.00,85.50 337.00,85.00 337.50,85.00
             338.00,85.00 339.50,305.50 339.00,305.50
             335.20,312.85 306.96,332.55 279.00,347.50
             251.83,362.02 224.93,371.96 220.00,369.00
             220.00,369.00 221.00,85.50 221.00,85.50 Z
           M 150.00,418.00
           C 175.18,404.75 201.73,386.61 200.00,383.50
             200.00,382.00 199.50,204.67 200.00,204.67
             200.50,204.67 104.67,205.00 104.67,205.00
             104.67,205.00 104.67,434.67 104.67,435.00
             107.67,436.00 127.49,429.85 150.00,418.00 Z" />
  <path id="urbe"
        fill="#a8cf45" stroke="#a8cf45" stroke-width="1"
        d="M 395.00,193.00
           C 395.00,193.00 411.00,193.00 411.00,193.00
             412.95,193.04 415.63,192.90 416.98,194.60
             418.23,196.19 418.00,200.01 418.00,202.00
             418.00,202.00 418.00,280.00 418.00,280.00
             418.01,284.13 417.76,292.01 423.05,293.26
             424.76,293.66 426.28,292.97 427.40,291.68
             429.74,288.99 429.99,279.63 430.00,276.00
             430.00,276.00 430.00,213.00 430.00,213.00
             430.00,209.42 429.07,196.03 431.60,194.02
             433.19,192.77 437.01,193.00 439.00,193.00
             439.00,193.00 453.00,193.00 453.00,193.00
             453.00,193.00 453.00,281.00 453.00,281.00
             452.97,299.91 448.19,316.74 426.00,317.00
             412.45,317.16 402.67,315.40 397.55,301.00
             394.10,291.33 395.00,273.63 395.00,263.00
             395.00,263.00 395.00,193.00 395.00,193.00 Z
           M 550.00,311.00
           C 548.79,317.85 542.86,316.04 537.00,316.00
             535.18,315.99 532.08,316.15 530.60,314.98
             528.62,313.41 529.00,309.30 529.00,307.00
             529.00,307.00 529.00,220.00 529.00,220.00
             529.00,220.00 529.00,200.00 529.00,200.00
             529.04,198.05 528.90,195.37 530.60,194.02
             532.19,192.77 536.01,193.00 538.00,193.00
             538.00,193.00 551.00,193.00 551.00,193.00
             551.00,193.00 551.00,213.00 551.00,213.00
             561.79,204.26 577.13,204.94 581.24,220.00
             583.51,228.33 583.00,239.31 583.00,248.00
             583.00,248.00 583.00,290.00 583.00,290.00
             582.99,296.34 582.40,304.56 578.87,309.98
             574.12,317.27 563.74,319.11 556.00,315.43
             553.51,314.24 552.02,312.79 550.00,311.00 Z
           M 647.00,272.00
           C 647.00,281.89 648.64,299.79 643.52,307.97
             635.57,320.65 607.09,320.34 598.97,307.97
             595.37,302.52 594.08,292.51 594.00,286.00
             594.00,286.00 594.00,239.00 594.00,239.00
             594.09,231.61 595.43,220.77 600.34,215.11
             609.19,204.70 633.70,204.38 642.36,215.11
             646.17,219.92 646.97,225.15 647.00,231.00
             647.00,231.00 647.00,267.00 647.00,267.00
             647.00,267.00 616.00,267.00 616.00,267.00
             616.00,267.00 616.00,285.00 616.00,285.00
             616.01,288.69 615.65,293.99 619.22,296.29
             622.78,298.60 625.12,295.14 625.79,291.98
             627.17,285.46 627.00,278.63 627.00,272.00
             627.00,272.00 647.00,272.00 647.00,272.00 Z
           M 488.00,213.00
           C 491.01,210.87 493.33,209.37 497.00,208.53
             508.29,205.92 515.87,211.05 518.84,222.00
             520.86,229.45 520.00,251.07 520.00,260.00
             520.00,260.00 505.00,260.00 505.00,260.00
             503.05,259.96 500.37,260.10 499.02,258.40
             497.77,256.81 498.00,252.99 498.00,251.00
             498.00,251.00 498.00,237.00 498.00,237.00
             497.96,234.35 497.98,230.45 495.57,228.71
             489.65,224.43 489.01,234.97 489.00,238.00
             489.00,238.00 489.00,316.00 489.00,316.00
             489.00,316.00 473.00,316.00 473.00,316.00
             473.00,316.00 467.17,314.43 467.17,314.43
             467.17,314.43 466.00,306.00 466.00,306.00
             466.00,306.00 466.00,232.00 466.00,232.00
             466.00,232.00 466.00,216.00 466.00,216.00
             466.00,216.00 467.60,210.02 467.60,210.02
             467.60,210.02 475.00,209.00 475.00,209.00
             475.00,209.00 487.00,209.00 487.00,209.00
             487.00,209.00 488.00,213.00 488.00,213.00 Z
           M 555.11,227.54
           C 550.68,229.55 551.06,233.61 551.00,238.00
             551.00,238.00 551.00,286.00 551.00,286.00
             551.01,288.69 550.93,292.48 552.31,294.81
             554.26,298.18 557.76,297.99 559.69,294.81
             561.19,292.27 561.00,287.88 561.00,285.00
             561.00,285.00 561.00,238.00 561.00,238.00
             560.94,233.01 561.32,227.72 555.11,227.54 Z
           M 616.08,247.00
           C 618.23,247.00 623.57,247.37 625.26,246.01
             628.06,243.74 626.39,230.64 624.40,228.74
             620.76,225.27 616.95,229.10 616.08,233.00
             616.08,233.00 616.08,239.00 616.08,239.00
             616.08,239.00 616.08,247.00 616.08,247.00 Z" />
  <path id="ventanas"
        fill="white" stroke="#b1e2f9" stroke-width="1"
        d="M 233.38,120.00
           C 233.38,120.00 253.12,119.88 253.12,119.88
             253.12,119.88 253.12,141.88 253.12,141.88
             253.12,141.88 233.60,141.98 233.60,141.98
             233.60,141.98 233.38,120.00 233.38,120.00 Z
           M 269.50,119.62
           C 269.50,119.62 288.62,119.62 288.62,119.62
             288.62,119.62 288.75,142.12 288.75,142.12
             288.75,142.12 269.62,142.12 269.62,142.12
             269.62,142.12 269.50,119.62 269.50,119.62 Z
           M 305.62,119.88
           C 305.62,119.88 324.25,119.88 324.25,119.88
             324.25,119.88 324.50,142.12 324.50,142.12
             324.50,142.12 305.60,141.98 305.60,141.98
             305.60,141.98 305.62,119.88 305.62,119.88 Z
           M 233.88,165.88
           C 233.88,165.88 252.88,165.88 252.88,165.88
             252.88,165.88 252.88,188.25 252.88,188.25
             252.88,188.25 233.50,188.38 233.50,188.38
             233.50,188.38 233.88,165.88 233.88,165.88 Z
           M 269.60,166.02
           C 269.60,166.02 289.50,166.12 289.50,166.12
             289.50,166.12 289.38,188.38 289.38,188.38
             289.38,188.38 269.38,188.50 269.38,188.50
             269.38,188.50 269.60,166.02 269.60,166.02 Z
           M 305.60,166.02
           C 305.60,166.02 325.00,166.12 325.00,166.12
             325.00,166.12 325.00,188.25 325.00,188.25
             325.00,188.25 305.62,188.38 305.62,188.38
             305.62,188.38 305.60,166.02 305.60,166.02 Z
           M 233.60,213.02
           C 233.60,213.02 253.25,213.00 253.25,213.00
             253.25,213.00 253.25,234.75 253.25,234.75
             253.25,234.75 233.60,234.98 233.60,234.98
             233.60,234.98 233.60,213.02 233.60,213.02 Z
           M 269.60,213.02
           C 269.60,213.02 289.00,213.00 289.00,213.00
             289.00,213.00 288.88,234.88 288.88,234.88
             288.88,234.88 269.50,234.88 269.50,234.88
             269.50,234.88 269.60,213.02 269.60,213.02 Z
           M 305.60,213.02
           C 305.60,213.02 324.88,213.00 324.88,213.00
             324.88,213.00 325.00,235.00 325.00,235.00
             325.00,235.00 305.60,234.98 305.60,234.98
             305.60,234.98 305.60,213.02 305.60,213.02 Z
           M 118.60,239.02
           C 118.60,239.02 132.40,239.02 132.40,239.02
             132.40,239.02 132.40,255.98 132.40,255.98
             132.40,255.98 118.60,255.98 118.60,255.98
             118.60,255.98 118.60,239.02 118.60,239.02 Z
           M 145.60,239.02
           C 145.60,239.02 159.40,239.02 159.40,239.02
             159.40,239.02 159.40,255.98 159.40,255.98
             159.40,255.98 145.60,255.98 145.60,255.98
             145.60,255.98 145.60,239.02 145.60,239.02 Z
           M 172.12,239.00
           C 172.12,239.00 186.90,239.02 186.90,239.02
             186.90,239.02 186.78,255.85 186.78,255.85
             186.78,255.85 172.00,256.00 172.00,256.00
             172.00,256.00 172.12,239.00 172.12,239.00 Z
           M 233.60,259.02
           C 233.60,259.02 253.00,259.12 253.00,259.12
             253.00,259.12 252.75,281.88 252.75,281.88
             252.75,281.88 233.60,281.98 233.60,281.98
             233.60,281.98 233.60,259.02 233.60,259.02 Z
           M 269.60,259.02
           C 269.60,259.02 288.88,259.00 288.88,259.00
             288.88,259.00 288.40,281.98 288.40,281.98
             288.40,281.98 269.60,281.98 269.60,281.98
             269.60,281.98 269.60,259.02 269.60,259.02 Z
           M 305.60,259.02
           C 305.60,259.02 324.88,258.88 324.88,258.88
             324.88,258.88 324.88,281.75 324.88,281.75
             324.88,281.75 305.60,281.98 305.60,281.98
             305.60,281.98 305.60,259.02 305.60,259.02 Z
           M 118.50,274.12
           C 118.50,274.12 132.38,274.00 132.38,274.00
             132.38,274.00 132.38,290.75 132.38,290.75
             132.38,290.75 118.50,290.75 118.50,290.75
             118.50,290.75 118.50,274.12 118.50,274.12 Z
           M 145.12,274.00
           C 145.12,274.00 159.88,273.88 159.88,273.88
             159.88,273.88 159.88,290.62 159.88,290.62
             159.88,290.62 145.12,290.75 145.12,290.75
             145.12,290.75 145.12,274.00 145.12,274.00 Z
           M 172.12,274.00
           C 172.12,274.00 186.88,273.88 186.88,273.88
             186.88,273.88 187.00,290.88 187.00,290.88
             187.00,290.88 172.12,291.00 172.12,291.00
             172.12,291.00 172.12,274.00 172.12,274.00 Z
           M 233.50,305.50
           C 233.50,305.50 252.98,305.60 252.98,305.60
             252.98,305.60 252.88,327.75 252.88,327.75
             252.88,327.75 233.50,327.75 233.50,327.75
             233.50,327.75 233.50,305.50 233.50,305.50 Z
           M 269.60,305.02
           C 269.60,305.02 288.75,305.12 288.75,305.12
             288.75,305.12 288.75,327.62 288.75,327.62
             288.75,327.62 269.62,327.62 269.62,327.62
             269.62,327.62 269.60,305.02 269.60,305.02 Z
           M 118.60,309.02
           C 118.60,309.02 132.40,309.02 132.40,309.02
             132.40,309.02 132.12,325.62 132.12,325.62
             132.12,325.62 118.38,325.88 118.38,325.88
             118.38,325.88 118.60,309.02 118.60,309.02 Z
           M 145.60,309.02
           C 145.60,309.02 159.40,309.02 159.40,309.02
             159.40,309.02 159.40,325.98 159.40,325.98
             159.40,325.98 145.60,325.98 145.60,325.98
             145.60,325.98 145.60,309.02 145.60,309.02 Z
           M 172.25,309.00
           C 172.25,309.00 186.88,309.12 186.88,309.12
             186.88,309.12 186.88,325.75 186.88,325.75
             186.88,325.75 172.50,325.75 172.50,325.75
             172.50,325.75 172.25,309.00 172.25,309.00 Z
           M 118.62,344.00
           C 118.62,344.00 132.75,344.00 132.75,344.00
             132.75,344.00 132.62,360.38 132.62,360.38
             132.62,360.38 118.62,360.62 118.62,360.62
             118.62,360.62 118.62,344.00 118.62,344.00 Z
           M 145.12,344.12
           C 145.12,344.12 159.75,344.00 159.75,344.00
             159.75,344.00 159.75,360.62 159.75,360.62
             159.75,360.62 145.25,360.50 145.25,360.50
             145.25,360.50 145.12,344.12 145.12,344.12 Z
           M 172.75,344.12
           C 172.75,344.12 187.00,344.25 187.00,344.25
             187.00,344.25 187.12,360.88 187.12,360.88
             187.12,360.88 172.62,360.62 172.62,360.62
             172.62,360.62 172.75,344.12 172.75,344.12 Z
           M 118.60,379.02
           C 118.60,379.02 132.40,379.02 132.40,379.02
             132.40,379.02 132.40,395.98 132.40,395.98
             132.40,395.98 118.60,395.98 118.60,395.98
             118.60,395.98 118.60,379.02 118.60,379.02 Z
           M 145.12,379.12
           C 145.12,379.12 159.75,379.25 159.75,379.25
             159.75,379.25 159.88,395.88 159.88,395.88
             159.88,395.88 145.12,395.75 145.12,395.75
             145.12,395.75 145.12,379.12 145.12,379.12 Z" />
</svg>
