<?xml version="1.0" encoding="UTF-8" standalone="no"?>
<!DOCTYPE svg PUBLIC "-//W3C//DTD SVG 20010904//EN"
              "http://www.w3.org/TR/2001/REC-SVG-20010904/DTD/svg10.dtd">

<svg xmlns="http://www.w3.org/2000/svg"
     width="3.5in" height="3.5in"
     viewBox="0 0 736 759">
  <path id="Selección #5"
        fill="#5b4d5c" stroke="#5b4d5c" stroke-width="1"
        d="M 209.69,714.06
           C 209.25,726.66 202.27,724.80 192.81,724.75
             189.84,724.73 182.00,725.14 179.50,723.25
             175.32,720.09 176.94,711.74 177.00,707.00
             177.05,703.89 176.98,700.96 179.43,698.65
             182.50,695.75 187.09,696.01 191.00,696.00
             199.00,695.99 208.40,695.63 209.25,706.00
             209.25,706.00 204.75,705.88 204.75,705.88
             204.18,704.15 204.40,702.30 202.69,701.39
             199.83,699.29 185.95,699.38 183.31,701.39
             180.52,703.95 180.94,708.67 181.00,712.00
             181.05,714.73 180.56,717.59 182.88,719.50
             185.63,721.77 197.90,722.27 202.38,720.25
             204.31,719.00 204.32,716.43 205.00,714.19
             205.00,714.19 209.69,714.06 209.69,714.06 Z
           M 291.94,722.38
           C 290.56,720.94 291.00,719.56 291.00,716.06
             292.38,716.19 293.44,716.06 295.56,716.12
             295.56,718.56 295.12,720.00 296.75,720.38
             300.62,720.94 300.19,720.81 304.94,720.94
             307.68,720.97 312.44,721.26 314.81,719.83
             317.99,717.85 316.94,713.88 315.62,712.75
             313.94,710.31 290.62,716.75 291.25,703.75
             291.31,694.56 303.44,695.94 309.00,696.00
             312.10,696.04 317.14,696.14 319.40,698.56
             320.91,700.17 320.65,702.16 320.81,704.19
             319.42,704.23 318.62,704.12 317.44,704.19
             317.44,702.97 317.53,701.10 315.56,700.12
             311.38,698.06 297.45,697.54 295.31,702.81
             294.44,708.12 301.06,708.50 304.17,708.48
             313.70,708.92 323.86,707.02 320.69,718.88
             319.19,724.46 311.94,724.00 305.19,724.00
             300.24,724.00 294.21,724.57 291.94,722.38 Z
           M 460.87,715.26
           C 463.09,714.91 462.35,715.09 464.00,715.00
             463.33,726.36 455.25,724.94 443.44,724.88
             440.54,724.86 437.39,724.57 435.00,722.65
             431.03,719.46 431.94,712.59 432.00,708.00
             432.19,694.31 441.55,695.88 452.00,696.00
             459.24,696.09 462.88,696.25 464.38,706.12
             462.25,706.19 463.00,706.19 461.19,706.25
             460.82,705.59 460.57,701.55 458.69,700.56
             452.38,698.80 441.06,699.19 439.23,700.81
             435.14,703.52 434.60,715.57 437.56,719.31
             439.65,721.77 455.75,722.50 458.69,719.62
             460.06,718.06 460.19,717.75 460.87,715.26 Z
           M 508.94,695.94
           C 519.88,695.25 523.62,695.31 531.56,696.19
             533.00,696.62 534.12,697.81 535.09,698.89
             538.00,702.62 538.20,717.94 534.46,721.57
             531.78,724.36 527.62,723.99 524.00,724.00
             519.35,724.01 508.62,725.62 505.44,722.88
             501.44,719.38 500.56,702.06 504.00,698.62
             505.38,697.12 506.25,696.31 508.94,695.94 Z
           M 230.75,695.62
           C 238.62,695.50 243.32,695.46 245.25,697.75
             248.11,701.15 247.70,719.16 244.38,722.38
             241.52,725.13 233.66,724.87 230.00,724.88
             226.09,724.88 220.20,724.59 217.13,722.83
             212.22,720.00 213.00,701.88 215.50,698.75
             217.38,695.75 225.50,695.62 230.75,695.62 Z
           M 251.94,696.12
           C 251.94,696.12 260.44,696.00 260.44,696.00
             260.44,696.00 281.94,717.88 281.94,717.88
             281.94,717.88 281.88,695.88 281.88,695.88
             281.88,695.88 287.00,695.88 287.00,695.88
             287.00,695.88 286.88,723.94 286.88,723.94
             286.88,723.94 280.44,724.06 280.44,724.06
             280.44,724.06 266.12,708.44 259.81,703.19
             257.38,702.93 259.12,703.06 256.94,703.00
             256.94,703.00 256.94,723.94 256.94,723.94
             256.94,723.94 252.06,724.06 252.06,724.06
             252.06,724.06 251.94,696.12 251.94,696.12 Z
           M 325.06,695.88
           C 325.06,695.88 356.31,696.00 356.31,696.00
             356.31,696.00 356.25,700.94 356.25,700.94
             356.25,700.94 342.94,701.00 342.94,701.00
             342.94,701.00 342.94,724.06 342.94,724.06
             342.94,724.06 338.06,724.12 338.06,724.12
             338.06,724.12 337.94,701.12 337.94,701.12
             337.94,701.12 325.00,701.12 325.00,701.12
             325.00,701.12 325.06,695.88 325.06,695.88 Z
           M 359.94,696.00
           C 359.94,696.00 386.94,696.00 386.94,696.00
             393.94,698.21 392.64,707.57 389.00,712.00
             391.55,715.95 391.56,719.39 391.56,723.94
             391.56,723.94 387.19,723.94 387.19,723.94
             387.08,719.73 387.44,716.12 386.00,714.75
             384.12,713.00 377.22,714.00 364.88,714.00
             364.88,714.00 364.88,723.94 364.88,723.94
             364.88,723.94 359.94,724.00 359.94,724.00
             359.94,724.00 359.94,696.00 359.94,696.00 Z
           M 395.19,706.69
           C 395.16,702.98 395.23,698.84 395.31,695.88
             395.31,695.88 399.94,696.12 399.94,696.12
             399.81,700.19 399.84,703.26 399.75,706.75
             399.62,711.78 399.19,717.31 401.06,719.12
             403.62,720.93 407.70,721.04 411.69,721.06
             415.85,721.08 419.92,720.94 422.38,719.50
             424.31,718.00 424.15,712.03 424.00,707.12
             424.06,703.62 423.87,700.36 423.94,696.00
             425.29,696.00 425.75,696.00 428.00,696.00
             428.00,696.00 428.00,706.94 428.00,706.94
             427.88,720.12 426.94,720.75 425.75,722.69
             423.50,725.04 419.27,724.81 415.78,724.96
             412.69,725.09 409.42,724.88 407.48,724.87
             404.51,724.85 400.69,724.70 398.19,722.81
             395.59,720.91 395.25,713.91 395.19,706.69 Z
           M 467.81,696.06
           C 467.81,696.06 498.81,696.12 498.81,696.12
             498.81,696.12 498.81,700.88 498.81,700.88
             498.81,700.88 486.06,701.12 486.06,701.12
             486.06,701.12 485.75,724.94 485.75,724.94
             485.75,724.94 480.88,725.00 480.88,725.00
             480.88,725.00 480.94,701.12 480.94,701.12
             480.94,701.12 467.75,701.06 467.75,701.06
             467.75,701.06 467.81,696.06 467.81,696.06 Z
           M 542.19,696.69
           C 542.19,696.69 556.31,696.50 556.31,696.50
             563.94,696.50 567.88,695.69 570.69,698.17
             574.62,701.69 573.44,710.88 571.31,711.94
             573.45,714.81 572.81,714.56 572.81,723.81
             571.29,723.94 570.83,723.87 568.96,723.91
             568.95,721.14 569.25,714.62 568.19,713.81
             565.50,712.75 558.31,713.50 546.56,713.44
             545.44,714.50 545.94,717.62 545.81,723.88
             545.81,723.88 542.12,723.88 542.12,723.88
             542.12,723.88 542.12,710.00 542.19,696.69 Z
           M 580.94,723.88
           C 578.75,723.88 576.06,723.81 576.06,723.81
             580.50,716.50 578.94,719.00 581.94,713.88
             587.44,704.50 589.88,697.06 594.06,696.19
             597.44,696.06 604.32,711.47 605.62,713.75
             608.00,718.50 606.75,715.31 611.31,723.81
             611.31,723.81 609.38,723.94 607.12,723.88
             606.12,722.24 603.50,718.06 603.50,718.06
             603.50,718.06 584.12,718.19 584.12,718.19
             584.06,718.02 582.16,721.64 580.94,723.88 Z
           M 218.88,702.00
           C 215.75,703.88 216.41,717.76 219.51,719.98
             221.60,721.47 227.33,721.38 230.12,721.38
             233.15,721.37 239.29,721.53 241.75,719.50
             244.78,717.00 245.16,704.35 242.40,701.60
             239.85,699.05 221.38,698.88 218.88,702.00 Z
           M 364.00,709.84
           C 364.00,709.84 382.50,710.00 382.50,710.00
             387.03,708.61 387.44,706.94 387.62,704.06
             387.12,700.94 385.00,699.89 382.69,699.88
             382.69,699.88 364.00,700.00 364.00,700.00
             364.00,700.00 364.00,709.84 364.00,709.84 Z
           M 507.75,701.75
           C 506.50,702.75 506.75,718.38 507.94,719.50
             510.62,721.81 519.05,721.00 522.00,721.00
             524.77,721.00 530.56,721.38 531.94,719.06
             533.00,715.88 533.57,704.07 531.25,701.75
             528.56,698.38 510.56,698.62 507.75,701.75 Z
           M 546.00,710.00
           C 546.00,710.00 562.00,710.00 562.00,710.00
             563.63,709.97 566.06,710.04 567.40,708.98
             569.23,707.53 570.21,701.82 565.87,700.21
             565.87,700.21 546.00,700.21 546.00,700.21
             546.00,700.21 546.00,710.00 546.00,710.00 Z
           M 601.62,714.00
           C 597.81,706.06 595.56,699.94 594.25,700.12
             592.94,699.94 589.69,707.44 586.65,714.00
             586.65,714.00 601.62,714.00 601.62,714.00 Z" />
  <path id="Selección #4"
        fill="#5b4d5c" stroke="#5b4d5c" stroke-width="1"
        d="M 61.00,559.00
           C 61.00,559.00 67.00,559.00 67.00,559.00
             67.00,559.00 74.35,559.99 74.35,559.99
             74.35,559.99 77.96,565.83 77.96,565.83
             77.96,565.83 85.22,579.00 85.22,579.00
             85.22,579.00 110.24,627.00 110.24,627.00
             110.24,627.00 122.00,651.00 122.00,651.00
             127.87,643.78 130.05,636.94 134.35,629.17
             134.35,629.17 144.73,610.00 144.73,610.00
             144.73,610.00 148.89,601.00 148.89,601.00
             148.89,601.00 159.30,581.99 159.30,581.99
             159.30,581.99 167.78,566.00 167.78,566.00
             169.85,562.17 170.27,559.44 175.04,559.05
             188.96,557.93 179.11,569.02 172.58,583.00
             172.58,583.00 166.59,594.00 166.59,594.00
             166.59,594.00 145.48,634.09 145.48,634.09
             145.48,634.09 136.61,651.28 136.61,651.28
             135.44,653.49 134.32,656.80 132.44,658.40
             130.00,660.49 121.59,660.13 118.00,660.38
             112.45,660.77 111.43,658.53 108.86,654.00
             108.86,654.00 104.06,644.17 104.06,644.17
             104.06,644.17 96.76,631.00 96.76,631.00
             96.76,631.00 80.26,599.96 80.26,599.96
             80.26,599.96 66.11,572.00 66.11,572.00
             63.31,566.20 61.49,565.84 61.00,559.00 Z
           M 203.00,559.00
           C 203.00,559.00 216.00,559.00 216.00,559.00
             216.00,559.00 216.00,652.00 216.00,652.00
             216.00,653.94 216.25,657.72 215.01,659.33
             213.20,661.50 205.83,661.69 204.02,659.33
             202.77,657.81 203.00,653.99 203.00,652.00
             203.00,652.00 203.00,559.00 203.00,559.00 Z
           M 254.00,570.00
           C 254.00,570.00 254.00,652.00 254.00,652.00
             254.00,653.99 254.23,657.81 252.98,659.33
             251.17,661.69 243.80,661.50 241.99,659.33
             240.75,657.72 241.00,653.94 241.00,652.00
             241.00,652.00 241.00,581.00 241.00,581.00
             241.00,581.00 241.00,568.00 241.00,568.00
             241.01,565.67 240.75,561.60 242.74,559.99
             244.28,558.75 248.06,559.00 250.00,559.00
             250.00,559.00 257.00,559.00 257.00,559.00
             265.40,559.15 266.77,565.52 271.18,572.00
             271.18,572.00 296.00,609.00 296.00,609.00
             300.96,616.48 317.83,640.46 320.00,647.00
             320.00,647.00 340.54,617.00 340.54,617.00
             340.54,617.00 349.21,604.75 349.21,604.75
             349.21,604.75 364.50,581.00 364.50,581.00
             364.50,581.00 379.52,559.99 379.52,559.99
             379.52,559.99 387.00,559.00 387.00,559.00
             387.00,559.00 401.00,559.00 401.00,559.00
             401.00,559.00 401.00,661.00 401.00,661.00
             401.00,661.00 389.01,659.26 389.01,659.26
             389.01,659.26 388.04,652.83 388.04,652.83
             388.04,652.83 388.04,636.00 388.04,636.00
             388.04,636.00 388.04,594.00 388.04,594.00
             388.04,594.00 387.00,571.00 387.00,571.00
             384.58,577.32 378.52,585.06 374.69,591.00
             374.69,591.00 361.76,610.00 361.76,610.00
             361.76,610.00 353.00,624.00 353.00,624.00
             353.00,624.00 342.39,640.01 342.39,640.01
             339.89,644.43 331.89,657.66 327.91,659.83
             325.68,661.03 323.69,660.89 321.28,660.93
             321.28,660.93 315.00,660.93 315.00,660.93
             315.00,660.93 306.08,648.00 306.08,648.00
             306.08,648.00 283.00,613.00 283.00,613.00
             283.00,613.00 254.00,570.00 254.00,570.00 Z
           M 419.00,660.00
           C 420.77,651.30 427.80,644.62 431.63,636.83
             431.63,636.83 434.13,631.04 434.13,631.04
             434.13,631.04 445.98,610.83 445.98,610.83
             445.98,610.83 454.56,595.09 454.56,595.09
             454.56,595.09 464.36,578.91 464.36,578.91
             466.33,575.16 472.66,561.85 475.53,559.99
             477.31,558.84 479.95,559.01 482.00,559.00
             482.00,559.00 488.00,559.00 488.00,559.00
             489.98,559.04 492.03,559.00 493.82,560.02
             497.93,562.37 503.92,576.02 506.60,580.72
             506.60,580.72 527.26,616.00 527.26,616.00
             527.26,616.00 533.90,628.83 533.90,628.83
             538.43,636.30 548.97,652.07 550.00,659.86
             546.47,660.46 541.63,661.69 538.41,659.86
             533.74,656.84 528.82,640.70 524.73,638.17
             522.80,636.98 520.19,637.03 518.00,637.00
             518.00,637.00 456.00,637.00 456.00,637.00
             453.49,637.01 450.31,636.81 448.05,638.02
             443.01,640.73 436.74,656.32 433.32,659.17
             430.62,661.42 422.80,660.01 419.00,660.00 Z
           M 570.00,559.00
           C 570.00,559.00 651.00,559.00 651.00,559.00
             657.52,559.08 673.41,560.77 678.96,563.68
             690.00,569.46 689.55,583.33 688.28,594.00
             688.28,594.00 687.61,602.00 687.61,602.00
             685.97,609.53 680.64,614.45 673.00,615.00
             676.28,617.91 680.66,619.23 683.16,623.04
             687.15,629.12 685.97,641.65 686.00,649.00
             686.03,654.50 686.31,654.81 687.00,659.99
             684.22,660.68 678.03,661.90 675.60,659.99
             673.03,657.95 674.04,644.62 674.00,641.00
             673.93,635.35 673.42,629.34 668.89,625.39
             663.88,621.02 659.03,621.38 653.00,620.58
             653.00,620.58 608.00,620.00 608.00,620.00
             608.00,620.00 591.00,620.00 591.00,620.00
             588.86,620.04 586.23,619.96 584.60,621.60
             582.68,623.52 583.01,627.46 583.00,630.00
             583.00,630.00 583.00,660.00 583.00,660.00
             570.28,662.28 570.02,660.70 570.00,652.00
             570.00,652.00 570.00,559.00 570.00,559.00 Z
           M 486.00,568.00
           C 486.00,568.00 476.39,583.96 476.39,583.96
             476.39,583.96 452.00,626.00 452.00,626.00
             452.00,626.00 475.00,627.00 475.00,627.00
             475.00,627.00 519.00,627.00 519.00,627.00
             519.00,627.00 486.00,568.00 486.00,568.00 Z
           M 583.00,570.00
           C 583.00,570.00 583.00,601.00 583.00,601.00
             583.00,602.99 582.77,606.81 584.02,608.40
             585.59,610.38 589.70,610.00 592.00,610.00
             592.00,610.00 650.00,610.00 650.00,610.00
             654.84,609.98 665.96,609.17 669.95,606.77
             677.01,602.54 676.08,592.13 676.00,585.00
             675.97,582.69 675.96,580.19 675.11,578.00
             674.10,575.40 672.46,573.59 669.98,572.31
             666.70,570.61 660.71,570.05 657.00,570.00
             657.00,570.00 624.00,570.00 624.00,570.00
             624.00,570.00 583.00,570.00 583.00,570.00 Z" />
  <path id="Selección #3"
        fill="#96a378" stroke="#96a378" stroke-width="1"
        d="M 559.82,44.00
           C 602.64,60.45 560.00,45.00 602.67,60.33
             623.17,68.01 629.57,69.32 649.00,79.33
             649.00,79.33 681.72,95.17 683.00,97.00
             683.00,148.33 683.00,97.00 683.00,148.00
             683.00,148.00 683.00,199.00 683.00,199.00
             683.00,199.00 646.67,186.67 646.67,186.67
             646.67,186.67 599.00,172.33 599.00,172.33
             599.00,172.33 560.73,162.55 560.73,162.55
             560.73,162.55 561.00,154.00 561.00,154.00
             561.00,154.00 561.00,86.00 561.00,86.00
             561.00,86.00 559.82,44.00 559.82,44.00 Z
           M 565.73,216.36
           C 565.73,216.36 599.50,223.50 599.50,223.50
             599.50,223.50 647.50,235.75 647.50,235.75
             647.50,235.75 683.00,246.67 683.00,246.67
             683.00,246.67 683.00,278.75 683.00,278.75
             683.00,278.75 683.00,314.00 683.00,314.00
             644.50,306.00 655.18,307.68 645.67,305.33
             645.67,305.33 647.33,306.33 604.50,296.50
             571.75,290.42 604.33,296.67 564.33,289.33
             564.33,289.33 565.09,263.27 565.09,263.27
             565.09,263.27 565.27,236.00 565.27,236.00
             565.27,236.00 565.73,216.36 565.73,216.36 Z
           M 562.00,341.67
           C 562.00,341.67 603.67,347.00 603.67,347.00
             603.67,347.00 651.33,355.67 651.33,355.67
             651.33,355.67 682.67,362.33 682.67,362.33
             682.67,362.33 683.00,382.67 683.00,382.67
             683.00,382.67 683.00,410.00 683.00,410.00
             683.00,410.00 649.33,406.00 649.33,406.00
             649.33,406.00 601.67,401.00 601.67,401.00
             601.67,401.00 563.00,397.82 563.00,397.82
             563.00,397.82 562.00,341.67 562.00,341.67 Z
           M 563.09,453.09
           C 563.09,453.09 613.12,454.62 613.12,454.62
             613.12,454.62 653.00,456.12 653.00,456.12
             669.00,457.00 671.38,457.88 682.50,458.75
             682.00,474.25 682.50,479.50 682.50,490.75
             682.50,490.75 682.50,521.00 682.50,521.00
             682.50,521.00 642.00,521.00 642.00,521.00
             642.00,521.00 596.50,521.50 596.50,521.50
             596.50,521.50 562.75,522.00 562.75,522.00
             562.75,522.00 563.09,453.09 563.09,453.09 Z" />
  <path id="Selección #2"
        fill="#84906c" stroke="#84906c" stroke-width="1"
        d="M 500.00,26.00
           C 500.00,26.00 513.27,30.00 513.27,30.00
             513.27,30.00 534.00,36.18 534.00,36.18
             534.00,36.18 547.64,40.55 547.64,40.55
             547.64,40.55 559.91,44.00 559.91,44.00
             561.06,90.59 561.06,90.62 561.00,120.66
             560.78,162.26 561.18,118.36 560.72,162.53
             529.75,156.12 561.45,162.36 529.64,156.00
             529.64,156.00 500.00,151.00 500.00,151.00
             500.00,151.00 500.00,26.00 500.00,26.00 Z
           M 500.00,207.00
           C 500.00,207.00 533.00,210.72 533.00,210.72
             533.00,210.72 561.83,215.53 561.83,215.53
             561.83,215.53 565.82,216.45 565.82,216.45
             565.16,232.30 565.29,244.60 564.67,254.00
             565.03,277.27 565.09,258.82 564.00,289.00
             564.00,289.00 532.67,283.00 532.67,283.00
             529.25,282.43 510.00,279.33 499.33,277.67
             499.33,244.00 499.33,277.33 499.67,242.33
             499.67,242.33 500.00,207.00 500.00,207.00 Z
           M 500.00,335.00
           C 500.00,335.00 517.62,336.38 517.62,336.38
             517.62,336.38 544.62,338.88 544.62,338.88
             544.62,338.88 562.00,341.67 562.00,341.67
             562.18,358.18 562.09,353.82 562.36,369.15
             562.64,383.82 562.43,372.63 563.00,397.82
             549.91,398.09 555.55,397.91 540.00,397.67
             540.00,397.67 514.73,397.27 514.73,397.27
             514.73,397.27 500.06,396.94 500.06,396.94
             500.06,396.94 500.00,335.00 500.00,335.00 Z
           M 499.94,521.81
           C 499.94,521.81 500.00,488.00 500.00,488.00
             500.01,483.78 500.03,454.97 500.00,453.12
             513.69,453.00 506.00,453.50 532.50,453.50
             558.00,454.00 555.53,453.04 563.00,453.27
             562.82,461.16 562.93,471.52 562.82,477.55
             562.86,504.28 562.68,498.30 562.64,521.82
             546.82,521.82 549.09,521.48 531.27,521.91
             531.27,521.91 499.94,521.81 499.94,521.81 Z" />
  <path id="Selección #1"
        fill="#5b4d5c" stroke="#5b4d5c" stroke-width="1"
        d="M 373.99,180.98
           C 373.99,180.98 374.00,79.00 374.00,79.00
             374.00,79.00 374.00,69.88 374.00,69.88
             374.00,69.88 400.36,58.91 420.00,52.00
             420.00,52.00 436.55,46.00 464.91,37.09
             464.91,37.09 482.91,31.45 499.98,26.03
             499.98,26.03 500.00,92.25 500.00,92.25
             500.00,94.29 500.11,148.08 499.98,150.95
             496.08,151.68 466.73,156.55 466.73,156.55
             442.36,162.00 436.40,163.35 415.09,169.27
             415.09,169.27 373.99,180.98 373.99,180.98 Z
           M 374.25,298.00
           C 374.25,298.00 374.00,259.00 374.00,259.00
             374.00,259.00 374.00,230.00 374.00,230.00
             374.00,230.00 417.33,220.33 417.33,220.33
             417.33,220.33 467.00,211.73 467.00,211.73
             467.00,211.73 500.00,208.00 500.00,208.00
             500.00,208.00 499.67,242.67 499.67,242.67
             499.67,242.67 499.75,277.75 499.75,277.75
             499.75,277.75 460.67,283.33 460.67,283.33
             460.67,283.33 415.00,290.00 415.00,290.00
             415.00,290.00 374.25,298.00 374.25,298.00 Z
           M 374.03,403.97
           C 374.03,403.97 374.12,378.62 374.12,378.62
             374.16,377.47 373.86,354.97 373.88,351.00
             383.25,349.62 400.00,347.00 417.25,344.88
             417.25,344.88 459.38,339.12 459.38,339.12
             488.38,336.38 464.50,338.62 500.00,335.12
             500.00,335.12 500.00,367.38 500.00,367.38
             500.00,375.37 499.75,377.38 500.12,396.62
             480.38,396.88 458.25,398.00 458.25,398.00
             458.25,398.00 416.33,400.33 416.33,400.33
             416.33,400.33 374.03,403.97 374.03,403.97 Z
           M 373.91,454.00
           C 373.91,454.00 405.00,453.33 405.00,453.33
             405.00,453.33 459.67,453.00 459.67,453.00
             459.67,453.00 500.00,453.12 500.00,453.12
             500.00,453.12 499.75,487.00 499.75,487.00
             499.75,487.00 500.00,521.75 500.00,521.75
             500.00,521.75 458.75,521.50 458.75,521.50
             458.75,521.50 407.25,521.50 407.25,521.50
             407.25,521.50 374.00,521.97 374.00,521.97
             374.00,521.97 374.00,489.25 374.00,489.25
             374.00,489.25 373.91,454.00 373.91,454.00 Z
           M 569.00,48.33" />
  <path id="Selección"
        fill="#c2c2c2" stroke="#c2c2c2" stroke-width="1"
        d="M 63.00,348.00
           C 61.05,341.14 61.99,314.84 62.00,306.00
             62.02,293.27 67.46,291.17 75.42,282.00
             89.27,266.05 104.65,250.30 120.42,236.26
             120.42,236.26 132.00,225.17 132.00,225.17
             132.00,225.17 175.00,188.45 175.00,188.45
             214.11,157.17 256.09,129.51 300.00,105.46
             300.00,105.46 349.00,80.63 349.00,80.63
             355.74,77.53 367.25,71.91 374.00,70.00
             374.00,70.00 374.00,144.00 374.00,144.00
             374.00,144.00 374.00,181.00 374.00,181.00
             374.00,181.00 358.00,186.35 358.00,186.35
             358.00,186.35 321.00,199.45 321.00,199.45
             278.75,216.21 239.80,233.78 200.00,255.86
             167.89,273.68 136.82,293.50 107.00,314.91
             107.00,314.91 63.00,348.00 63.00,348.00 Z
           M 63.00,412.00
           C 61.24,405.79 61.99,392.98 62.00,386.00
             62.00,383.63 61.87,380.22 62.74,378.04
             64.49,373.64 74.83,367.21 79.00,364.34
             79.00,364.34 125.00,334.47 125.00,334.47
             176.29,302.30 247.43,269.92 305.00,250.67
             323.96,244.33 355.08,233.82 374.00,230.00
             374.00,230.00 374.00,298.00 374.00,298.00
             374.00,298.00 377.00,299.00 377.00,299.00
             369.02,299.17 359.91,301.83 352.00,303.58
             352.00,303.58 303.00,315.85 303.00,315.85
             245.72,331.36 188.97,350.52 135.00,375.31
             135.00,375.31 86.00,399.78 86.00,399.78
             79.42,403.27 69.46,410.11 63.00,412.00 Z
           M 374.00,404.00
           C 374.00,404.00 309.00,411.72 309.00,411.72
             250.04,419.25 191.65,431.21 134.00,445.63
             134.00,445.63 79.00,460.98 79.00,460.98
             67.08,464.68 62.19,467.79 62.00,458.00
             62.00,458.00 62.00,450.00 62.00,450.00
             62.02,447.83 61.93,443.94 63.15,442.10
             65.19,439.02 76.20,435.32 80.00,433.80
             80.00,433.80 132.00,414.22 132.00,414.22
             183.42,395.73 235.86,380.72 289.00,368.12
             289.00,368.12 341.00,357.00 341.00,357.00
             341.00,357.00 374.00,351.00 374.00,351.00
             374.00,351.00 374.00,404.00 374.00,404.00 Z
           M 62.00,492.00
           C 62.00,492.00 101.00,483.58 101.00,483.58
             101.00,483.58 167.00,472.72 167.00,472.72
             209.63,467.11 252.13,461.86 295.00,458.91
             295.00,458.91 339.00,456.00 339.00,456.00
             339.00,456.00 349.00,455.04 349.00,455.04
             349.00,455.04 361.73,454.55 361.73,454.55
             361.73,454.55 374.00,454.00 374.00,454.00
             374.00,454.00 374.00,522.00 374.00,522.00
             374.00,522.00 135.00,522.00 135.00,522.00
             135.00,522.00 80.00,522.00 80.00,522.00
             76.61,522.00 65.00,522.90 63.02,520.40
             61.77,518.81 62.00,514.99 62.00,513.00
             62.00,513.00 62.00,501.00 62.00,501.00
             62.00,501.00 62.00,492.00 62.00,492.00 Z" />
</svg>
