<?xml version="1.0" encoding="UTF-8" standalone="no"?>
<!DOCTYPE svg PUBLIC "-//W3C//DTD SVG 20010904//EN"
              "http://www.w3.org/TR/2001/REC-SVG-20010904/DTD/svg10.dtd">

<svg xmlns="http://www.w3.org/2000/svg"
     width="3.5in" height="3.5in"
     viewBox="0 0 750 750">
  <path id="ACESPANA"
        fill="white" stroke="black" stroke-width="2"
        d="M 358.00,181.00
           C 363.74,182.56 410.67,218.00 410.67,218.00
             410.67,218.00 412.00,374.00 412.00,374.00
             412.00,374.00 357.96,374.00 357.96,374.00
             357.96,374.00 358.00,181.00 358.00,181.00 Z
           M 506.50,414.25
           C 510.75,405.50 513.25,402.25 520.00,402.22
             527.75,406.00 526.00,406.50 531.25,406.75
             533.50,405.50 532.72,403.30 535.50,402.75
             535.50,402.75 541.75,404.75 541.75,404.75
             541.75,404.75 540.25,414.00 533.00,415.75
             523.50,415.50 520.74,412.43 519.50,412.50
             517.08,412.64 516.59,415.84 514.00,416.25
             511.74,416.60 508.91,414.79 506.50,414.25 Z
           M 198.00,477.00
           C 197.99,486.17 196.84,493.95 189.70,500.62
             176.50,511.00 154.25,509.75 144.75,500.50
             138.88,493.96 134.01,484.46 134.00,476.00
             133.98,460.54 134.25,442.25 144.25,430.00
             149.50,424.25 155.75,422.75 163.00,422.00
             172.50,421.25 179.00,421.50 190.00,429.75
             197.25,438.00 197.24,442.91 197.25,452.00
             197.25,452.00 180.00,451.50 180.00,451.50
             178.04,439.08 166.57,433.10 157.22,444.02
             151.14,451.13 150.67,472.53 154.23,481.00
             156.32,485.99 161.27,490.71 167.00,490.51
             176.41,490.19 179.00,484.75 180.56,478.02
             180.56,478.02 198.00,477.00 198.00,477.00 Z
           M 313.00,478.00
           C 316.75,502.75 339.00,491.25 337.48,481.72
             335.25,470.50 322.50,474.00 312.25,468.75
             298.67,465.31 298.50,454.75 298.25,446.75
             298.25,423.25 315.48,421.83 330.00,422.00
             335.76,422.07 341.26,423.02 346.00,426.56
             354.69,433.06 356.00,440.96 356.00,451.00
             356.00,451.00 337.00,451.00 337.00,451.00
             336.40,444.61 333.12,438.81 326.00,438.30
             321.39,437.98 313.97,442.53 316.28,447.90
             318.32,452.62 328.35,454.89 333.00,456.12
             347.30,459.87 357.59,462.63 357.99,480.00
             358.76,513.55 314.88,513.19 301.18,499.79
             295.10,493.84 294.02,486.06 294.00,478.00
             294.00,478.00 313.00,478.00 313.00,478.00 Z
           M 59.75,507.75
           C 59.75,507.75 86.25,424.75 86.25,424.75
             86.25,424.75 105.25,424.50 105.25,424.50
             105.25,424.50 131.00,506.50 131.00,506.50
             131.00,506.50 112.25,506.75 112.25,506.75
             112.25,506.75 107.75,488.75 107.75,488.75
             107.75,488.75 83.75,489.00 83.75,489.00
             83.75,489.00 78.25,507.25 78.25,507.25
             78.25,507.25 59.75,507.75 59.75,507.75 Z
           M 234.00,507.00
           C 234.00,507.00 235.60,424.02 235.60,424.02
             235.60,424.02 288.48,424.85 288.48,424.85
             288.48,424.85 288.50,439.75 288.50,439.75
             288.50,439.75 253.00,440.00 253.00,440.00
             253.00,440.00 253.00,456.00 253.00,456.00
             253.00,456.00 286.00,456.00 286.00,456.00
             286.00,456.00 286.00,473.00 286.00,473.00
             286.00,473.00 253.00,473.00 253.00,473.00
             253.00,473.00 253.00,490.00 253.00,490.00
             253.00,490.00 289.75,489.50 289.75,489.50
             289.75,489.50 290.00,507.00 290.00,507.00
             290.00,507.00 234.00,507.00 234.00,507.00 Z
           M 365.00,423.00
           C 365.00,423.00 400.00,423.73 400.00,423.73
             405.85,424.57 411.21,425.32 415.90,429.39
             425.81,437.98 425.88,465.04 414.91,472.89
             406.03,479.25 394.32,478.00 384.00,478.00
             384.00,478.00 384.00,507.00 384.00,507.00
             384.00,507.00 365.00,507.00 365.00,507.00
             365.00,507.00 365.00,423.00 365.00,423.00 Z
           M 418.25,506.25
           C 418.25,506.25 444.75,424.50 444.75,424.50
             444.75,424.50 463.75,424.25 463.75,424.25
             463.75,424.25 490.25,505.50 490.25,505.50
             490.25,505.50 470.72,505.40 470.72,505.40
             470.72,505.40 466.00,489.00 466.00,489.00
             466.00,489.00 442.00,489.00 442.00,489.00
             442.00,489.00 436.70,505.98 436.70,505.98
             436.70,505.98 418.25,506.25 418.25,506.25 Z
           M 496.00,423.00
           C 496.00,423.00 509.00,423.00 509.00,423.00
             517.19,423.14 518.19,429.22 521.75,436.00
             521.75,436.00 541.00,472.00 541.00,472.00
             541.00,472.00 541.00,423.00 541.00,423.00
             541.00,423.00 559.00,423.00 559.00,423.00
             559.00,423.00 559.00,507.00 559.00,507.00
             559.00,507.00 540.25,507.00 540.25,507.00
             540.25,507.00 513.00,456.25 513.00,456.25
             513.00,456.25 513.50,505.75 513.50,505.75
             510.11,505.75 495.75,505.50 495.75,505.50
             495.75,505.50 496.00,423.00 496.00,423.00 Z
           M 565.00,507.00
           C 565.00,507.00 591.70,423.99 591.70,423.99
             591.70,423.99 612.28,423.99 612.28,423.99
             612.28,423.99 638.25,506.75 638.25,506.75
             638.25,506.75 619.00,507.00 619.00,507.00
             619.00,507.00 614.25,488.75 614.25,488.75
             614.25,488.75 594.08,489.00 590.00,489.00
             589.49,492.64 584.25,506.75 584.25,506.75
             584.25,506.75 565.00,507.00 565.00,507.00 Z
           M 384.00,462.00
           C 388.80,462.00 394.79,462.64 398.96,459.99
             406.09,455.47 405.51,445.09 397.98,441.31
             394.48,439.55 388.01,440.00 384.00,440.00
             384.00,440.00 384.00,462.00 384.00,462.00 Z
           M 95.75,445.75
           C 95.75,445.75 87.00,473.00 87.00,473.00
             87.00,473.00 103.00,472.75 103.00,472.75
             103.00,472.75 95.75,445.75 95.75,445.75 Z
           M 454.25,446.50
           C 454.25,446.50 447.00,472.00 447.00,472.00
             447.00,472.00 461.00,472.00 461.00,472.00
             461.00,472.00 454.25,446.50 454.25,446.50 Z
           M 601.75,447.50
           C 601.75,447.50 593.75,473.00 593.75,473.00
             593.75,473.00 610.00,472.75 610.00,472.75
             610.00,472.75 601.75,447.50 601.75,447.50 Z" />
  <path id="logoAmarillo"
        fill="#fec901" stroke="#fec901" stroke-width="1"
        d="M 480.00,373.50
           C 480.00,362.00 480.12,334.06 480.12,323.12
             480.12,323.12 480.71,257.88 480.00,256.00
             471.52,249.25 466.70,245.85 457.50,239.50
             457.50,239.50 432.00,220.52 432.00,220.52
             427.24,217.30 417.75,211.25 413.00,208.00
             413.00,208.00 413.50,111.00 413.50,88.75
             419.25,93.25 442.00,109.33 442.00,109.33
             442.00,109.33 479.00,135.43 479.00,135.43
             479.00,135.43 517.00,161.78 517.00,161.78
             521.45,165.07 529.62,170.75 539.38,178.12
             539.38,183.00 539.75,373.38 539.75,373.38
             530.00,373.38 510.00,373.75 480.00,373.50 Z
           M 288.00,132.18
           C 310.73,148.36 318.73,153.27 328.91,161.27
             328.91,161.27 329.00,239.00 329.00,239.00
             329.00,239.00 329.00,310.00 329.00,310.00
             329.00,310.00 328.73,373.45 328.73,373.45
             308.73,373.27 287.82,373.27 287.82,373.27
             288.36,336.73 288.00,132.18 288.00,132.18 Z
           M 222.25,373.75
           C 222.25,373.75 222.04,204.39 222.09,190.26
             236.48,200.22 256.55,214.00 260.64,216.91
             260.64,233.09 260.68,344.50 260.68,374.00
             236.93,374.25 222.25,373.75 222.25,373.75 Z
           M 161.04,252.39
           C 170.39,259.04 191.83,274.39 196.96,278.09
             196.96,283.04 197.17,363.13 197.16,374.12
             176.07,374.12 181.25,373.82 160.88,373.82
             160.88,373.82 161.04,252.39 161.04,252.39 Z
           M 51.00,364.00
           C 51.00,364.00 131.00,364.00 131.00,364.00
             131.00,364.00 131.00,374.00 131.00,374.00
             131.00,374.00 51.00,374.00 51.00,374.00
             51.00,374.00 51.00,364.00 51.00,364.00 Z
           M 573.62,364.38
           C 581.62,364.25 650.75,364.25 650.75,364.25
             650.88,368.12 650.88,369.75 650.88,373.12
             650.88,373.12 573.62,373.00 573.62,373.00
             573.50,369.38 573.50,369.88 573.62,364.38 Z
           M 174.00,572.00
           C 174.00,572.00 179.45,572.36 179.45,572.36
             179.36,582.27 170.74,586.80 166.73,586.26
             163.52,586.00 158.84,585.52 156.64,583.09
             151.91,578.82 152.89,570.66 152.91,565.73
             152.45,550.91 158.18,543.64 172.18,547.82
             177.27,550.36 179.00,560.00 179.00,560.00
             179.00,560.00 174.52,559.83 174.52,559.83
             172.73,558.92 172.82,548.73 161.73,553.36
             158.55,555.18 158.69,561.26 158.64,566.00
             158.59,569.80 158.48,575.80 160.64,579.09
             163.36,583.00 172.82,581.64 174.00,572.00 Z
           M 200.00,546.65
           C 202.54,546.33 203.44,546.27 206.00,546.65
             217.80,549.40 215.23,560.03 215.01,569.00
             214.82,577.11 215.58,585.37 205.00,586.81
             200.21,587.47 193.91,586.72 190.65,582.78
             188.21,579.83 188.05,576.62 188.00,573.00
             187.84,560.64 184.69,548.88 200.00,546.65 Z
           M 546.00,546.74
           C 548.36,546.47 551.74,547.36 554.09,547.64
             562.55,552.27 561.06,562.92 561.00,572.00
             560.95,579.82 558.94,586.17 550.00,586.80
             548.28,587.05 545.71,586.97 544.00,586.80
             531.91,584.75 534.00,574.18 534.00,565.00
             534.00,560.36 533.19,553.87 536.43,550.23
             539.05,547.27 542.35,547.00 546.00,546.74 Z
           M 51.73,546.64
           C 51.73,546.64 123.18,546.73 123.18,546.73
             123.18,546.73 123.17,546.58 123.27,555.55
             103.82,555.73 51.73,555.73 51.73,555.73
             51.82,546.82 51.82,555.73 51.73,546.64 Z
           M 231.36,559.36
           C 231.36,559.36 231.36,585.82 231.36,585.82
             231.36,585.82 225.55,585.91 225.55,585.91
             225.55,585.91 225.27,547.27 225.27,547.27
             225.27,547.27 231.45,547.45 231.45,547.45
             231.45,547.45 246.00,574.55 246.00,574.55
             246.00,574.55 246.27,546.91 246.27,546.91
             246.27,546.91 251.73,547.00 251.73,547.00
             251.73,547.00 251.45,585.64 251.45,585.64
             251.45,585.64 245.27,585.55 245.27,585.55
             245.27,585.55 235.50,564.55 231.36,559.36 Z
           M 279.73,579.55
           C 281.73,576.45 281.45,571.27 276.73,570.45
             268.09,568.45 261.45,567.09 262.64,554.36
             262.64,554.36 264.36,546.09 275.64,547.00
             286.36,546.55 285.81,555.19 286.09,557.82
             286.09,557.82 281.55,557.91 281.55,557.91
             277.36,547.18 267.82,552.82 268.18,558.27
             270.18,568.91 286.52,562.93 285.95,576.00
             285.90,577.31 285.75,578.75 285.26,579.98
             281.92,588.37 261.36,589.27 261.82,575.00
             261.82,575.00 266.55,574.73 266.55,574.73
             266.82,582.55 275.09,582.73 279.73,579.55 Z
           M 294.18,547.27
           C 294.18,547.27 319.00,547.27 319.00,547.27
             319.00,547.27 319.00,553.00 319.00,553.00
             319.00,553.00 309.82,553.09 309.82,553.09
             309.82,553.09 309.45,585.64 309.45,585.64
             309.45,585.64 303.64,585.64 303.64,585.64
             303.64,585.64 303.55,553.09 303.55,553.09
             303.55,553.09 294.18,553.00 294.18,553.00
             294.18,553.00 294.18,547.27 294.18,547.27 Z
           M 347.18,585.91
           C 342.48,576.99 342.45,577.36 338.36,570.73
             338.36,570.73 332.36,570.55 332.36,570.55
             332.36,573.12 332.59,586.21 332.59,586.21
             332.59,586.21 326.42,586.21 326.42,586.21
             326.42,586.21 326.45,547.45 326.45,547.45
             346.18,547.18 343.25,547.09 346.70,549.89
             351.54,553.83 354.45,564.55 344.73,570.91
             344.73,570.91 346.45,574.00 352.55,585.82
             352.55,585.82 347.18,585.91 347.18,585.91 Z
           M 404.00,586.00
           C 404.00,581.76 404.09,569.36 404.09,569.36
             404.09,569.36 393.73,547.18 393.73,547.18
             393.73,547.18 400.36,547.18 400.36,547.18
             400.36,547.18 407.82,563.64 407.82,563.64
             407.82,563.64 415.00,547.18 415.00,547.18
             415.00,547.18 421.91,547.18 421.91,547.18
             421.91,547.18 411.00,568.82 411.00,568.82
             411.00,568.82 411.00,581.55 411.00,586.00
             411.00,586.00 404.00,586.00 404.00,586.00 Z
           M 434.00,581.00
           C 436.81,581.00 450.64,581.00 450.64,581.00
             450.64,581.00 450.91,586.00 450.91,586.00
             450.91,586.00 429.09,586.00 429.09,586.00
             429.09,586.00 428.91,547.91 428.91,547.91
             428.91,547.91 450.91,547.73 450.91,547.73
             450.91,547.73 450.91,552.45 450.91,552.45
             450.91,552.45 434.09,552.91 434.09,552.91
             434.09,552.91 434.18,564.45 434.18,564.45
             434.18,564.45 448.09,564.55 448.09,564.55
             448.09,564.55 448.00,569.00 448.00,569.00
             448.00,569.00 434.00,569.00 434.00,569.00
             434.00,569.00 434.00,581.00 434.00,581.00 Z
           M 465.82,558.82
           C 465.82,558.82 465.64,586.09 465.64,586.09
             465.64,586.09 460.00,586.00 460.00,586.00
             460.00,586.00 460.45,547.55 460.45,547.55
             460.45,547.55 466.27,547.64 466.27,547.64
             466.27,547.64 481.36,576.09 481.36,576.09
             481.36,576.09 481.18,547.45 481.18,547.45
             481.18,547.45 486.55,547.55 486.55,547.55
             486.55,547.55 486.18,586.09 486.18,586.09
             486.18,586.09 480.36,586.00 480.36,586.00
             480.36,586.00 465.82,558.82 465.82,558.82 Z
           M 498.36,547.36
           C 508.00,546.09 519.79,546.80 523.08,554.03
             524.20,556.48 524.02,565.01 524.00,568.00
             523.96,572.54 525.09,578.36 520.36,583.55
             516.73,587.09 497.82,585.55 497.82,585.55
             497.82,585.55 498.36,547.36 498.36,547.36 Z
           M 366.91,547.09
           C 366.91,547.09 365.36,572.27 366.55,576.91
             370.45,583.36 379.36,582.45 380.64,577.27
             382.64,572.91 381.36,547.27 381.36,547.27
             381.36,547.27 387.36,547.18 387.36,547.18
             387.36,547.18 387.45,556.22 387.45,558.36
             387.47,566.85 388.36,579.55 383.23,583.75
             376.91,588.18 369.36,588.18 364.27,583.73
             357.27,579.45 360.91,547.09 360.91,547.09
             360.91,547.09 366.91,547.09 366.91,547.09 Z
           M 582.73,546.73
           C 582.73,546.73 650.73,546.36 650.73,546.36
             650.73,546.36 650.91,555.45 650.91,555.45
             650.91,555.45 582.91,556.00 582.91,556.00
             582.91,556.00 582.73,546.73 582.73,546.73 Z
           M 201.01,552.55
           C 192.96,554.36 193.99,561.36 194.00,568.00
             194.00,570.06 193.91,573.05 194.51,574.98
             195.67,578.75 198.93,581.40 203.00,580.53
             209.06,579.22 208.99,573.95 209.00,569.00
             209.01,561.52 210.73,553.72 201.01,552.55 Z
           M 551.55,553.18
           C 545.55,550.91 543.16,553.34 541.74,555.23
             539.48,558.21 539.53,570.20 540.23,574.00
             541.01,578.28 541.38,581.29 549.00,581.00
             554.93,580.75 554.94,573.64 555.00,569.00
             555.08,562.06 556.36,555.45 551.55,553.18 Z
           M 333.00,565.00
           C 335.53,565.00 339.68,565.27 341.81,563.98
             345.68,561.71 345.47,556.43 341.81,554.17
             339.49,552.78 335.63,553.01 333.00,553.00
             333.00,553.00 333.00,565.00 333.00,565.00 Z
           M 504.00,553.00
           C 504.00,553.00 503.64,580.55 503.64,580.55
             503.64,580.55 514.25,581.46 516.27,579.00
             519.50,575.08 520.13,557.64 516.00,554.45
             513.30,552.37 507.29,553.00 504.00,553.00 Z
           M 221.98,624.00
           C 222.31,616.19 217.31,615.88 214.69,615.69
             206.50,615.44 207.56,629.69 207.56,629.69
             207.56,629.69 206.19,644.44 214.06,644.75
             221.50,644.94 221.44,642.25 223.12,636.75
             223.12,636.75 227.19,636.75 227.19,636.75
             229.25,651.94 210.38,651.75 205.00,647.38
             202.12,644.56 202.01,641.10 202.00,637.00
             201.98,625.20 198.32,610.01 215.00,610.01
             222.44,610.00 228.50,614.44 227.31,624.06
             227.31,624.06 221.98,624.00 221.98,624.00 Z
           M 243.62,611.75
           C 249.06,609.62 252.88,610.00 259.12,611.88
             265.06,614.94 264.17,622.99 264.19,627.31
             264.00,634.12 266.25,647.38 256.94,649.81
             255.21,650.08 247.30,650.01 245.44,649.75
             237.25,647.50 236.87,636.27 237.00,625.00
             237.09,617.84 236.59,614.78 243.62,611.75 Z
           M 316.06,610.19
           C 316.06,610.19 338.31,610.12 338.31,610.12
             338.31,610.12 338.25,616.06 338.25,616.06
             338.25,616.06 322.00,616.00 322.00,616.00
             322.00,616.00 322.00,627.38 322.00,627.38
             322.00,627.38 331.39,627.24 336.19,627.25
             336.19,627.25 336.25,632.88 336.25,632.88
             336.25,632.88 322.12,633.06 322.12,633.06
             322.12,633.06 322.12,650.19 322.12,650.19
             322.12,650.19 315.88,650.25 315.88,650.25
             315.88,650.25 316.06,610.19 316.06,610.19 Z
           M 350.00,610.00
           C 350.00,610.00 356.00,610.00 356.00,610.00
             356.00,610.00 356.19,650.06 356.19,650.06
             356.19,650.06 350.12,650.19 350.12,650.19
             350.12,650.19 350.00,610.00 350.00,610.00 Z
           M 365.00,650.00
           C 365.00,650.00 377.12,611.25 377.12,611.25
             377.12,611.25 383.50,611.12 383.50,611.12
             383.50,611.12 395.38,649.88 395.38,649.88
             395.38,649.88 388.94,649.88 388.94,649.88
             388.94,649.88 386.69,640.00 386.69,640.00
             386.69,640.00 374.06,639.94 374.06,639.94
             374.06,639.94 371.44,649.94 371.44,649.94
             371.44,649.94 365.00,650.00 365.00,650.00 Z
           M 410.62,623.00
           C 410.62,623.00 410.69,649.56 410.69,649.56
             410.69,649.56 404.25,649.62 404.25,649.62
             404.25,649.62 404.00,610.50 404.00,610.50
             404.00,610.50 410.75,610.44 410.75,610.44
             410.75,610.44 425.19,637.56 425.19,637.56
             425.19,637.56 425.00,610.00 425.00,610.00
             425.00,610.00 431.50,610.00 431.50,610.00
             431.50,610.00 431.06,649.62 431.06,649.62
             431.06,649.62 424.81,649.56 424.81,649.56
             424.81,649.56 410.62,623.00 410.62,623.00 Z
           M 442.00,616.25
           C 442.00,616.25 442.06,610.06 442.06,610.06
             442.06,610.06 466.12,610.38 466.12,610.38
             466.12,610.38 465.94,615.94 465.94,615.94
             465.94,615.94 450.19,644.06 450.19,644.06
             450.19,644.06 465.75,644.00 465.75,644.00
             465.75,644.00 465.94,649.81 465.94,649.81
             465.94,649.81 442.06,649.69 442.06,649.69
             442.06,649.69 442.12,644.69 442.12,644.69
             442.12,644.69 459.56,616.00 459.56,616.00
             459.56,616.00 442.00,616.25 442.00,616.25 Z
           M 474.06,649.88
           C 474.06,649.88 486.38,610.44 486.38,610.44
             486.38,610.44 492.00,610.38 492.00,610.38
             492.00,610.38 504.75,649.88 504.75,649.88
             504.75,649.88 498.19,649.81 498.19,649.81
             498.19,649.81 495.27,640.00 495.27,640.00
             495.27,640.00 483.09,639.82 483.09,639.82
             483.09,639.82 480.75,649.81 480.75,649.81
             480.75,649.81 474.06,649.88 474.06,649.88 Z
           M 277.00,611.00
           C 277.00,611.00 282.94,611.06 282.94,611.06
             282.94,611.06 297.62,639.31 297.62,639.31
             297.62,639.31 298.00,611.00 298.00,611.00
             298.00,611.00 303.00,611.00 303.00,611.00
             303.00,611.00 303.00,649.81 303.00,649.81
             303.00,649.81 296.38,649.81 296.38,649.81
             296.38,649.81 282.31,622.50 282.31,622.50
             282.31,622.50 282.06,650.00 282.06,650.00
             282.06,650.00 277.06,650.00 277.06,650.00
             277.06,650.00 277.00,611.00 277.00,611.00 Z
           M 250.94,615.69
           C 240.88,615.62 243.44,625.94 243.12,630.81
             243.06,639.12 243.19,639.56 244.75,641.81
             248.25,646.06 255.12,644.81 257.19,642.44
             259.56,638.75 258.93,634.43 258.94,630.38
             258.95,623.25 260.19,615.44 250.94,615.69 Z
           M 380.44,619.62
           C 380.44,619.62 376.00,634.94 376.00,634.94
             376.00,634.94 384.44,635.00 384.44,635.00
             384.44,635.00 380.44,619.62 380.44,619.62 Z
           M 489.38,619.19
           C 489.38,619.19 484.81,635.19 484.81,635.19
             484.81,635.19 493.88,635.19 493.88,635.19
             493.88,635.19 489.38,619.19 489.38,619.19 Z" />
</svg>
