<?xml version="1.0" encoding="UTF-8"?>
<svg id="Capa_1" data-name="Capa 1" xmlns="http://www.w3.org/2000/svg" viewBox="0 0 1000 1000">
  <defs>
    <style>
      .cls-1 {
        fill: #150085;
      }

      .cls-2 {
        fill: #f42617;
      }

      .cls-3 {
        fill: #323232;
      }
    </style>
  </defs>
  <path class="cls-3" d="M567.95,821.95c3.17.97.98,12.55.5,15.63-19.14,124.03-211.83,90.17-182.12-37.66,17.54-75.45,125.88-95.53,165.79-28.18-11.05,4.25-12.69-4.98-18.5-10.39-6.79-6.33-17.89-14.08-26.54-17.49-6.3-2.49-36.12-9.63-39.66-4.54-1.63,2.34-.36,34.54-.54,40.73-1.01,34.68-1.79,68.31,0,103.07.23,4.44-1.29,23.15,1.23,24.91,42.21,4.96,84.37-26.03,91.85-67.91.34-1.91,2.39-9.92-.27-9.92h-77.73c-.36-1.96-.04-8.26,2.06-8.26h83.93Z"/>
  <path class="cls-3" d="M794.28,744.9v-8.26s152.71-1.36,152.71-1.36l-77.09,165.76c-.14,2.9.04,1.79,2.07,2.09,23.4,3.46,53.47-5.8,77.18-.11,1.48,1.9.56,8.35-1.47,8.35h-165.79l78.42-166.48h-66.04Z"/>
  <path class="cls-3" d="M768.85,823.31c0,51.31-41.6,92.91-92.91,92.91s-92.91-41.6-92.91-92.91,41.6-92.91,92.91-92.91,92.91,41.6,92.91,92.91ZM664.95,739.4v167.16c0,5.49,29.83-.1,34.38-1.39,56.12-15.85,79.19-82.42,46.54-130.44-17.19-25.29-50.5-40.59-80.92-35.34Z"/>
  <path class="cls-3" d="M270.09,735.27l-107.33,188.49-104.54-188.48c3.45.22,7.59-1.09,10.33,1.35l55.01,100.43,59.16-101.78h87.37Z"/>
  <rect class="cls-3" x="282.34" y="735.27" width="78.55" height="176.11"/>
  <polygon class="cls-1" points="735.12 76.24 449.65 568.8 365.69 418.73 365.21 415.73 558.32 76.24 735.12 76.24"/>
  <path class="cls-1" d="M838.31,198.69h-25.45l-66.04-81.15-2.07,2.03-278.59,479.49c-3.81-9.33-16.31-19.27-8.29-28.93L743.36,76.91l94.94,121.78Z"/>
  <rect class="cls-3" x="732.34" y="191.79" width="16.56" height="16.56"/>
  <rect class="cls-3" x="754.36" y="191.79" width="16.56" height="16.56"/>
  <path class="cls-3" d="M748.88,171.17v16.52c-17.08,1.18-17.71.58-16.52-16.52h16.52Z"/>
  <path class="cls-3" d="M770.9,171.17c1.19,17.1.56,17.71-16.52,16.52v-16.52s16.52,0,16.52,0Z"/>
  <polygon class="cls-2" points="494.34 169.81 376.04 378.92 261.83 171.19 494.34 169.81"/>
  <path class="cls-2" d="M165.52,297.75l88.07-126.58c3.43,3.16,6.19,8.69,8.47,12.83,34.95,63.41,73.48,129.76,105.94,193.99,1.14,2.26,5.08,8.7,4.54,10.56-.31,1.07-8.54,15.15-9.62,16.49-1.32,1.63-1.38,1.77-2.71,0l-106.67-191.22-2.85.87-59.05,83.05h-26.14Z"/>
  <rect class="cls-3" x="228.79" y="260.58" width="16.56" height="16.56"/>
  <rect class="cls-3" x="228.79" y="281.22" width="16.56" height="16.56"/>
  <rect class="cls-3" x="250.8" y="281.22" width="16.56" height="16.56"/>
  <path class="cls-3" d="M267.34,260.6c1.19,17.1.56,17.71-16.52,16.52v-16.52s16.52,0,16.52,0Z"/>
  <path class="cls-3" d="M85.72,656.84c-.98.93-6.19-3.58-9.01-4.04-37.55-6.16-26.78,53.01,8.31,31.55,2.54,3.51-5.9,6.11-8.57,6.56-33.97,5.7-35.89-45.12-1.01-40.97,2.02.24,13.22,4.1,10.27,6.9Z"/>
  <path class="cls-3" d="M169.77,675.82c0,8.65-7.01,15.67-15.67,15.67s-15.67-7.01-15.67-15.67,7.01-15.67,15.67-15.67,15.67,7.01,15.67,15.67ZM151.4,662.59c-15.12,3.12-12.2,31.5,7.65,25.61,12.61-3.74,8.81-29.01-7.65-25.61Z"/>
  <path class="cls-3" d="M800.19,675.76c0,8.66-7.02,15.69-15.69,15.69s-15.69-7.02-15.69-15.69,7.02-15.69,15.69-15.69,15.69,7.02,15.69,15.69ZM793.84,685.31c13.27-14.5-11.47-33.19-20.02-16.59-8.28,16.06,11.05,26.4,20.02,16.59Z"/>
  <path class="cls-3" d="M949.75,691.24l-2.76-4.14c-6.39,6.49-22.26,6.4-22.11-4.85.17-12.68,20.09-4.16,21.97-9.78,3.72-11.13-14.14-12.5-20.47-6.01,1.29-9.45,23.38-7.52,23.38.69v24.08ZM947,676.1c-5.46.57-18.14-2.51-19.02,5.13-1.46,12.63,23.78,9.24,19.02-5.13Z"/>
  <path class="cls-3" d="M253.58,691.24c-.89.1-2.75-1.82-2.75-2.06v-20.64c0-7.09-16.08-8.9-20.27.37-2.96,6.57-.91,13.77-1.75,20.29-.32,2.51.47,2.22-2.75,2.04v-30.27l2.76,4.13c4.82-1.56,7.69-5.77,14.13-5.2,3.06.27,10.63,3.96,10.63,7.26v24.08Z"/>
  <path class="cls-3" d="M535.62,660.97v19.95c0,11.21,22.01,9.08,22.01,0v-19.95h2.75v30.27l-2.77-5.5c-5.25,4.6-8.12,6.46-15.48,5.18-3.58-.62-9.27-5.09-9.27-8.62v-21.33h2.75Z"/>
  <path class="cls-3" d="M333.37,662.37c-1.63,4.68-6.39.02-10.37-.09-5.5-.14-9.46,1.65-9.03,7.65s19.15,2.63,20.6,12.69-20.12,10.74-24.58,5.85c-4.77-5.24,6.87-.16,7.62-.05,4.64.67,13.65,1.38,14.17-5,.64-7.85-20.56-4.02-20.57-14.88,0-10.28,15.63-9.51,22.15-6.18Z"/>
  <path class="cls-3" d="M644.31,666.47c-.92.88-5.98-3.05-8.17-3.56-19.27-4.49-22.08,29.91.57,25.55,2.61-.5,6.25-5.45,7.59-4.1,1.9,1.92-4.38,6.1-6.47,6.58-25.29,5.79-26.21-32.26-4.2-31.03,1.8.1,13.78,3.59,10.67,6.55Z"/>
  <path class="cls-3" d="M702.1,662.35l-5.52-.69c0-1.64,4.92-.08,5.53-.68.4-.39-.3-5.37,0-6.88,4.9-1.11,1.43,4.45,4.02,6.28,2.05,1.45,7.08.25,9.72.6-1.23,3.35-8.25-.43-10.4,2.65-1.04,1.49-.94,14.55-.63,17.31.99,8.7,4.68,7.9,12.41,7.56-4.16,6.5-15.13,1.93-15.13-4.83v-21.33Z"/>
  <path class="cls-3" d="M391.16,662.35l-5.52-.69c0-1.64,4.92-.08,5.53-.68.4-.39-.3-5.37,0-6.88,4.9-1.11,1.43,4.45,4.02,6.28,1.87,1.32,5.99.36,8.35.6-.55,3.17-8.72.44-9.63,1.35-.75.76-.36,19.14.05,21.29,1.67,8.85,9.4,1.19,12.34,6.21-3.57,2.83-15.13.86-15.13-3.42v-24.08Z"/>
  <path class="cls-3" d="M857.57,660.97l3.43,4.12c.67-2.51,9.86-5.89,10.31-5.5,2.83,2.52-6.39,4.47-7.6,5.46-.78.64-3.39,4.35-3.39,4.86v21.33h-2.75v-30.27Z"/>
  <path class="cls-3" d="M462.7,660.97l3.43,4.12c.67-2.51,9.86-5.89,10.31-5.5,2.83,2.52-6.39,4.47-7.6,5.46-.78.64-3.39,4.35-3.39,4.86v21.33h-2.75v-30.27Z"/>
</svg>